<svg width="360" height="800" viewBox="0 0 360 800" fill="none" xmlns="http://www.w3.org/2000/svg">
<g clip-path="url(#clip0_2813_961)">
<rect width="360" height="800" fill="#FFC535"/>
<g opacity="0.5">
<path d="M210.056 323.305L-127.622 419.412C-127.622 419.412 -147.725 420.902 -148.989 399.296C-151.929 349.074 -106.955 234.344 3.73628 208.947C114.427 183.549 196.684 251.548 217.062 292.387C227.285 312.875 210.056 323.305 210.056 323.305Z" fill="#F1F1F1"/>
<path d="M249.973 527.607L230.416 583.068C226.995 592.769 215.589 595.918 208.235 589.122C178.409 561.559 112.957 500.562 90.2577 475.287C86.6617 469.483 90.7128 462.299 92.7098 460.387C94.6065 458.572 97.1717 454.671 103.218 455.545C123.726 461.818 208.897 495.406 241.821 508.461C249.071 511.336 252.691 519.902 249.973 527.607Z" fill="#F1F1F1"/>
<path d="M-141.253 499.389L-144.573 605.542C-145.08 621.752 -133.303 635.417 -118.074 636.29L180.201 653.381C200.92 654.569 207.033 623.852 187.638 616.012L-111.975 479.586C-125.568 473.396 -140.762 483.673 -141.253 499.389Z" fill="#F1F1F1"/>
</g>
<path opacity="0.3" d="M383.09 86.6222L376.116 275.622C376.116 275.622 373.533 286.169 362.254 283.221C336.034 276.366 284.741 234.226 290.156 173.289C295.57 112.351 344.101 81.5279 368.416 77.8862C380.614 76.0593 383.09 86.6222 383.09 86.6222Z" fill="#F1F1F1"/>
</g>
<defs>
<clipPath id="clip0_2813_961">
<rect width="360" height="800" fill="white"/>
</clipPath>
</defs>
</svg>
