<svg width="172" height="94" viewBox="0 0 172 94" fill="none" xmlns="http://www.w3.org/2000/svg">
<path d="M43.5 26L87.5 0.5L130.5 25L86 51L43.5 26Z" fill="white"/>
<path d="M13.4348 81.1235V81.0348C13.4348 80.17 12.7183 79.4382 11.8226 79.4382H4.70219C3.82892 79.4382 3.09001 80.1478 3.09001 81.0348V81.1235C3.09001 81.9883 3.80653 82.7201 4.70219 82.7201H11.0165C12.6511 82.7201 14.1066 83.4076 15.0918 84.5163C15.1589 84.5829 15.2261 84.6716 15.2933 84.7381C16.077 85.6695 16.5472 86.8891 16.5472 88.2197C16.5472 91.2355 14.0618 93.697 11.0165 93.697H5.55306C2.50784 93.697 0.0223919 91.2355 0.0223919 88.2197H3.15719C3.15719 89.528 4.23197 90.5924 5.55306 90.5924H11.0389C12.36 90.5924 13.4572 89.528 13.4572 88.2197C13.4572 86.9113 12.36 85.8469 11.0389 85.8469H4.72458C3.44827 85.8469 2.30631 85.359 1.43305 84.5385C1.20914 84.3168 1.00761 84.0729 0.828482 83.7846C0.313481 83.0306 0 82.1214 0 81.1235V81.0348C0 78.4625 2.10479 76.3558 4.70219 76.3558H11.8226C14.42 76.3558 16.5472 78.4625 16.5472 81.0348V81.1235H13.4348Z" fill="#010101"/>
<path d="M41.6031 93.6526H38.0876L36.4755 90.5481L32.6465 83.0971L28.8176 90.5481L27.2054 93.6526H23.69L25.3022 90.5481L32.6465 76.2893L39.9909 90.5481L41.6031 93.6526Z" fill="#010101"/>
<path d="M67.6668 76.3339V93.6973L64.532 91.3245L53.2691 82.7204V93.7195H50.1343V76.4005L53.2691 78.7732L64.532 87.3773V76.3117L67.6668 76.3339Z" fill="#010101"/>
<path d="M85.9381 76.3336C90.7746 76.3336 94.6931 80.1921 94.6931 84.982C94.6931 87.1109 93.9094 89.0845 92.6107 90.5924C92.454 90.7698 92.2748 90.9472 92.1181 91.1024C90.5507 92.6991 88.3563 93.6526 85.9605 93.6526H77.2054V76.2893L85.9381 76.3336ZM80.2955 90.5924H85.9381C89.0505 90.5924 91.5807 88.0866 91.5807 85.0042C91.5807 81.9218 89.0505 79.416 85.9381 79.416H80.2955V90.5924Z" fill="#010101"/>
<path d="M121.787 88.1309C121.787 91.1912 119.279 93.6526 116.211 93.6526H104.254V76.2893H115.293C117.89 76.2893 120.018 78.3959 120.018 80.9683C120.018 81.8997 119.749 82.7867 119.256 83.4963C120.779 84.5164 121.787 86.2017 121.787 88.1309ZM107.367 82.5871H115.315C116.189 82.5871 116.928 81.8775 116.928 80.9904C116.928 80.1256 116.211 79.3938 115.315 79.3938H107.367V82.5871ZM116.189 90.5481C117.532 90.5481 118.652 89.4615 118.652 88.1088C118.652 86.7561 117.555 85.6695 116.189 85.6695H107.367V90.5481H116.189Z" fill="#010101" stroke="#010101" stroke-width="0.25" stroke-miterlimit="10"/>
<path d="M147.581 84.9823C147.581 89.7722 143.641 93.6529 138.826 93.6529C134.012 93.6529 130.071 89.7501 130.071 84.9823C130.071 80.1924 134.012 76.3117 138.826 76.3117C143.641 76.3117 147.581 80.1924 147.581 84.9823ZM144.447 84.9823C144.447 81.9 141.916 79.3941 138.804 79.3941C135.692 79.3941 133.161 81.9 133.161 84.9823C133.161 88.0647 135.692 90.5706 138.804 90.5706C141.916 90.5706 144.447 88.0647 144.447 84.9823Z" fill="#010101" stroke="#010101" stroke-width="0.25" stroke-miterlimit="10"/>
<path d="M171.227 76.3333L164.442 85.0482L171.204 93.6967H167.241L162.449 87.5762L157.658 93.6967H153.694L160.434 85.0482L153.649 76.3333H157.613L162.427 82.4981L167.241 76.3333H171.182H171.227Z" fill="#010101" stroke="#010101" stroke-width="0.25" stroke-miterlimit="10"/>
<path fill-rule="evenodd" clip-rule="evenodd" d="M86.4531 50.3878L43.3945 25.7065C43.3945 25.7065 67.7563 40.0984 86.6099 25.9283C93.7751 20.5396 102.082 18.1669 109.113 18.1447C116.032 18.1225 122.167 20.207 125.213 22.2028C125.929 22.6685 129.377 24.7086 129.377 24.7086C129.377 24.7086 129.377 25.2852 129.355 25.7952L86.4531 50.3878Z" fill="#FFC535" stroke="#FFC535" stroke-miterlimit="10"/>
<path d="M42.051 26.5942L86.4531 51.8742L131.034 26.3281V36.9945L86.3859 63.0728L42.051 37.1054V26.5942Z" fill="#FCB017"/>
<path d="M60.5724 35.2432L59.7107 36.7222L68.4968 41.7429L69.3585 40.2639L60.5724 35.2432Z" fill="white"/>
<path d="M69.3214 40.2651L68.4586 41.7435L77.2407 46.7702L78.1034 45.2918L69.3214 40.2651Z" fill="white"/>
<path d="M78.1352 45.3055L77.2738 46.7847L86.0609 51.8035L86.9223 50.3242L78.1352 45.3055Z" fill="white"/>
<path d="M112.785 36.8391C112.494 36.8391 112.203 36.6839 112.046 36.4178C111.957 36.2847 111.934 36.1295 111.934 35.9964C111.934 35.7081 112.091 35.4199 112.36 35.2646L121.137 30.253C121.54 30.009 122.078 30.1643 122.302 30.5635C122.391 30.6965 122.413 30.8517 122.413 30.9848C122.413 31.273 122.257 31.5613 121.988 31.7165L113.211 36.7504C113.099 36.7947 112.942 36.8391 112.785 36.8391Z" fill="white"/>
<path d="M104.008 41.851C103.717 41.851 103.426 41.6958 103.269 41.4297C103.179 41.2966 103.157 41.1414 103.157 41.0083C103.157 40.72 103.314 40.4318 103.582 40.2765L112.36 35.2649C112.763 35.021 113.3 35.1762 113.524 35.5753C113.591 35.7084 113.636 35.8636 113.636 35.9967C113.636 36.285 113.479 36.5732 113.211 36.7285L104.433 41.7401C104.299 41.8066 104.164 41.851 104.008 41.851Z" fill="white"/>
<path d="M95.2304 46.862C94.9393 46.862 94.6482 46.7068 94.4915 46.4407C94.4019 46.3076 94.3795 46.1524 94.3795 46.0194C94.3795 45.7311 94.5362 45.4428 94.8049 45.2876L103.582 40.2759C103.985 40.032 104.523 40.1872 104.747 40.5864C104.814 40.7194 104.859 40.8747 104.859 41.0077C104.859 41.296 104.702 41.5843 104.433 41.7395L95.6558 46.7511C95.5215 46.8398 95.3871 46.862 95.2304 46.862Z" fill="white"/>
<path d="M86.4531 51.8964C86.162 51.8964 85.8709 51.7412 85.7141 51.4751C85.6246 51.342 85.6022 51.1868 85.6022 51.0538C85.6022 50.7655 85.7589 50.4772 86.0276 50.322L94.805 45.3103C95.2081 45.0664 95.7455 45.2216 95.9694 45.6208C96.0589 45.7538 96.0813 45.9091 96.0813 46.0421C96.0813 46.3304 95.9246 46.6187 95.6559 46.7739L86.8785 51.7855C86.7441 51.8521 86.5874 51.8964 86.4531 51.8964Z" fill="white"/>
<path fill-rule="evenodd" clip-rule="evenodd" d="M68.5847 25.33C68.5847 23.7111 69.9058 22.3806 71.5628 22.3806C73.1973 22.3806 74.5408 23.689 74.5408 25.33C74.5408 26.9488 73.2197 28.2793 71.5628 28.2793C69.9058 28.2571 68.5847 26.9488 68.5847 25.33Z" fill="#010101"/>
<path fill-rule="evenodd" clip-rule="evenodd" d="M74.8319 26.6826C74.8319 25.8621 75.5037 25.219 76.3097 25.219C77.1158 25.219 77.7876 25.8843 77.7876 26.6826C77.7876 27.5031 77.1158 28.1461 76.3097 28.1461C75.5037 28.1461 74.8319 27.4809 74.8319 26.6826Z" fill="#010101"/>
<path d="M43.3945 26.4165L42.0958 26.6826C41.8271 26.5274 41.6704 26.2391 41.6704 25.9508C41.6704 25.6404 41.8271 25.3743 42.0958 25.219L86.0053 0.116421C86.274 -0.038807 86.6099 -0.038807 86.8562 0.116421L95.6336 5.15025L94.7827 6.636L86.4307 1.8683L44.2454 25.9951L43.3945 26.4165Z" fill="#010101"/>
<path d="M95.6645 5.07564L94.803 6.55468L103.589 11.5744L104.451 10.0954L95.6645 5.07564Z" fill="#010101"/>
<path d="M104.485 10.132L103.622 11.6105L112.405 16.6362L113.268 15.1577L104.485 10.132Z" fill="#010101"/>
<path d="M121.137 21.6492L112.36 16.6375L113.211 15.1517L124.586 21.6492H121.137Z" fill="#010101"/>
<path d="M86.4532 51.8961C86.2965 51.8961 86.1621 51.8518 86.0278 51.7852L77.2504 46.7736L78.1012 45.2878L86.4532 50.0556L128.639 25.9287L121.137 21.6488H124.586L130.788 25.1969C131.057 25.3521 131.214 25.6404 131.214 25.9287C131.214 26.2391 131.057 26.5052 130.788 26.6605L86.8786 51.7631C86.7443 51.8518 86.61 51.8961 86.4532 51.8961ZM59.6731 36.7281L54.859 33.9784L55.7099 32.4926L60.524 35.2423L59.6731 36.7281Z" fill="#010101"/>
<path d="M86.4532 62.9618C86.2965 62.9618 86.1621 62.9174 86.0278 62.8509C85.7591 62.6957 85.6024 62.4074 85.6024 62.1191V51.0536C85.6024 50.7431 85.7591 50.477 86.0278 50.3218L129.937 25.2192C130.206 25.064 130.542 25.064 130.788 25.2192C131.057 25.3744 131.214 25.6627 131.214 25.951V36.4621C131.214 36.7726 131.057 37.0387 130.788 37.1939L86.8787 62.8509C86.7443 62.9174 86.61 62.9618 86.4532 62.9618ZM87.3041 51.5414V60.6334L129.489 35.9521V27.3924L87.3041 51.5414Z" fill="#010101"/>
<path d="M59.6731 47.5055L50.8957 42.2056L51.7466 40.742L60.5464 46.0419L59.6731 47.5055Z" fill="#010101"/>
<path d="M86.4532 62.9618C86.2964 62.9618 86.1621 62.9175 86.0277 62.851L59.6731 47.5056L60.524 46.0198L85.5799 60.6334V51.5193L59.6731 36.7061L60.524 35.2204L86.8786 50.2775C87.1473 50.4327 87.304 50.721 87.304 51.0093V62.0748C87.304 62.3853 87.1473 62.6514 86.8786 62.8066C86.7442 62.9175 86.6099 62.9618 86.4532 62.9618Z" fill="#010101"/>
<path d="M50.8958 42.2053L42.1184 37.1715C41.8497 37.0163 41.6929 36.728 41.6929 36.4397V25.9285C41.6929 25.6181 41.8497 25.352 42.1184 25.1967C42.3871 25.0415 42.7229 25.0415 42.9692 25.1967L44.2679 25.9285L43.4171 26.4164V27.4143V35.9518L51.769 40.7417L50.8958 42.2053Z" fill="#010101"/>
<path d="M59.6732 36.7284L43.3947 27.4147V25.441L60.5464 35.2426L59.6732 36.7284Z" fill="#010101"/>
</svg>
