<svg width="152" height="186" viewBox="0 0 152 186" fill="none" xmlns="http://www.w3.org/2000/svg">
<g clip-path="url(#clip0_2813_4244)">
<path d="M76 130.283C106.798 130.283 131.764 105.528 131.764 74.9919C131.764 44.4557 106.798 19.7012 76 19.7012C45.2023 19.7012 20.2359 44.4557 20.2359 74.9919C20.2359 105.528 45.2023 130.283 76 130.283Z" fill="white"/>
<path d="M1.0555 75.8914C0.814816 55.6071 8.88691 35.3045 25.0496 20.4538C41.1938 5.62151 62.2442 -0.803375 82.6281 0.977237L83.165 0.481603C81.7394 0.353105 80.3138 0.242964 78.8883 0.187894C58.7265 -0.583093 39.4905 6.48428 24.6978 20.0683C9.90518 33.6707 1.31469 52.156 0.555621 72.1283C0.500079 73.5601 0.481565 74.9736 0.518593 76.387L1.0555 75.8914Z" fill="white"/>
<path d="M140.725 37.452L141.132 37.0849C138.392 32.4773 135.134 28.1268 131.394 24.125C126.062 18.416 119.971 13.6432 113.343 9.89844L112.917 10.2839C119.489 13.9737 125.617 18.6914 131.005 24.4738C134.782 28.5123 138.022 32.8812 140.725 37.452Z" fill="white"/>
<path d="M150.371 65.7216C153.24 88.6676 145.335 112.642 126.95 129.53C96.6246 157.396 49.0807 155.597 20.995 125.51C15.5889 119.727 11.3122 113.321 8.10923 106.547L7.68341 106.933C10.9419 113.78 15.2741 120.15 20.6062 125.859C34.3065 140.526 52.9501 149.025 73.1118 149.796C93.2735 150.567 112.51 143.499 127.302 129.915C142.095 116.331 150.667 97.8461 151.444 77.8555C151.611 73.615 151.407 69.393 150.871 65.2627L150.371 65.7216Z" fill="white"/>
<path d="M21.4948 45.3639C23.7906 41.2152 26.5862 37.2685 29.9372 33.6155C52.4687 8.96232 90.7001 6.61265 116.138 27.9616L116.472 27.5945C104.308 17.3697 88.9227 12.1748 72.9081 12.9641C56.19 13.7902 40.8049 21.0044 29.5669 33.3035C26.1604 37.0299 23.2722 41.0684 20.9209 45.3822H21.4948V45.3639Z" fill="white"/>
<path d="M13.9781 71.4492H13.4598C13.3302 73.6337 13.3302 75.8549 13.4412 78.076C14.2373 93.9547 20.9579 108.622 32.4366 119.618L32.7698 119.25C19.3287 106.364 12.9969 88.7597 13.9781 71.4492Z" fill="white"/>
<path d="M131.098 45.3638C130.468 44.2073 129.802 43.0875 129.098 41.9678L128.728 42.3716C129.339 43.3629 129.931 44.3542 130.487 45.3638H131.098Z" fill="white"/>
<path d="M138.54 71.4492H138.003C138.929 87.3646 133.69 103.629 122.063 116.368C103.012 137.222 72.7415 142.123 48.4697 130.246L48.0994 130.65C57.5971 135.349 68.1871 137.57 79.0918 137.038C95.8099 136.212 111.195 128.998 122.433 116.699C133.671 104.4 139.392 88.5027 138.559 71.9265C138.559 71.7613 138.54 71.5961 138.54 71.4492Z" fill="white"/>
<path d="M101.364 136.726C102.271 136.34 103.197 135.936 104.086 135.532L103.882 135.092C102.993 135.514 102.086 135.899 101.179 136.285L101.364 136.726Z" fill="white"/>
<path d="M21.6244 114.643L21.2357 114.936C21.8281 115.726 22.4391 116.515 23.0685 117.268L23.4573 116.956C22.8093 116.203 22.1984 115.432 21.6244 114.643Z" fill="white"/>
<path d="M18.292 109.796L17.8661 110.053C18.3845 110.879 18.9214 111.723 19.4769 112.531L19.8842 112.256C19.3473 111.448 18.8104 110.622 18.292 109.796Z" fill="white"/>
<path d="M11.1085 93.752L10.6271 93.8988C10.9048 94.835 11.2011 95.7896 11.5343 96.7258L11.9972 96.5605C11.6824 95.6427 11.3862 94.6882 11.1085 93.752Z" fill="white"/>
<path d="M29.4929 123.398L29.1597 123.766C29.8817 124.445 30.6223 125.106 31.3813 125.748L31.6961 125.381C30.937 124.72 30.1965 124.059 29.4929 123.398Z" fill="white"/>
<path d="M15.4223 104.675L14.978 104.895C15.4223 105.776 15.8852 106.657 16.3665 107.52L16.7923 107.281C16.3295 106.419 15.8666 105.556 15.4223 104.675Z" fill="white"/>
<path d="M13.0155 99.3145L12.5526 99.498C12.9229 100.416 13.2932 101.334 13.7005 102.233L14.1448 102.031C13.756 101.132 13.3857 100.214 13.0155 99.3145Z" fill="white"/>
<path d="M95.7544 138.763C96.6986 138.469 97.6429 138.139 98.5686 137.809L98.4019 137.35C97.4762 137.68 96.532 138.01 95.6063 138.304L95.7544 138.763Z" fill="white"/>
<path d="M84.0536 140.819L84.1091 141.314C85.0904 141.186 86.0901 141.039 87.0529 140.874L86.9603 140.396C86.0161 140.543 85.0348 140.709 84.0536 140.819Z" fill="white"/>
<path d="M89.8855 139.809L89.9966 140.286C90.9593 140.066 91.9406 139.846 92.8848 139.589L92.7552 139.111C91.811 139.368 90.8482 139.607 89.8855 139.809Z" fill="white"/>
<path d="M33.9733 127.217L33.6586 127.602C34.4362 128.208 35.2323 128.814 36.0469 129.383L36.3431 128.979C35.547 128.41 34.7509 127.823 33.9733 127.217Z" fill="white"/>
<path d="M38.7869 130.631L38.5092 131.035C39.3423 131.567 40.194 132.099 41.0456 132.595L41.3048 132.173C40.4532 131.696 39.6201 131.163 38.7869 130.631Z" fill="white"/>
<path d="M51.0987 136.89C50.4693 136.652 49.8583 136.395 49.2473 136.138L49.0622 136.597C49.7657 136.89 50.4693 137.166 51.1913 137.441L51.0987 136.89Z" fill="white"/>
<path d="M43.8967 133.623L43.6561 134.064C44.5262 134.523 45.4334 134.981 46.3221 135.404L46.5442 134.963C45.6371 134.523 44.7484 134.082 43.8967 133.623Z" fill="white"/>
<path d="M25.3643 119.194L24.994 119.525C25.6605 120.259 26.3455 120.975 27.0306 121.691L27.3823 121.342C26.6973 120.645 26.0123 119.91 25.3643 119.194Z" fill="white"/>
<path d="M23.6055 32.899L23.2167 32.5869C22.5872 33.3395 21.9762 34.1289 21.3838 34.9182L21.7726 35.2119C22.365 34.441 22.976 33.67 23.6055 32.899Z" fill="white"/>
<path d="M31.548 24.1611C30.7889 24.8036 30.0483 25.4645 29.3263 26.1253L29.6595 26.4925C30.3816 25.8316 31.1221 25.1708 31.8627 24.5466L31.548 24.1611Z" fill="white"/>
<path d="M27.1972 28.2002C26.5122 28.8978 25.8271 29.632 25.1606 30.3479L25.5309 30.6784C26.1789 29.9441 26.8639 29.2282 27.5489 28.5306L27.1972 28.2002Z" fill="white"/>
<path d="M35.8247 20.8389C35.1582 21.3161 34.5102 21.7934 33.8622 22.3074L34.1584 22.6929C34.7323 22.2523 35.3063 21.8301 35.8802 21.4079L35.8247 20.8389Z" fill="white"/>
<path d="M63.5957 9.67747L63.5031 9.2002C62.6329 9.34705 61.7443 9.53062 60.8556 9.71419L60.9111 10.2098C61.8183 10.0079 62.707 9.84268 63.5957 9.67747Z" fill="white"/>
<path d="M78.1847 141.333L78.2402 141.829C79.203 141.792 80.1842 141.718 81.1469 141.645L81.1099 141.149C80.1472 141.223 79.1659 141.296 78.1847 141.333Z" fill="white"/>
<path d="M19.6435 37.3232C19.088 38.1309 18.5326 38.9754 18.0142 39.8014L18.44 40.0584C18.9584 39.2323 19.4953 38.4063 20.0508 37.5986L19.6435 37.3232Z" fill="white"/>
<path d="M16.4961 42.3535C16.0147 43.2163 15.5334 44.0791 15.0891 44.9602L15.5334 45.1805C15.9777 44.3177 16.4406 43.4366 16.9219 42.5922L16.4961 42.3535Z" fill="white"/>
<path d="M9.8866 58.8193C9.64591 59.7739 9.42375 60.7468 9.22009 61.7197L9.70146 61.8115C9.90511 60.8569 10.1088 59.884 10.3494 58.9478L9.8866 58.8193Z" fill="white"/>
<path d="M13.8116 47.6396C13.4043 48.5391 13.0155 49.457 12.6452 50.3748L13.1081 50.5584C13.4783 49.6589 13.8671 48.7411 14.2559 47.8599L13.8116 47.6396Z" fill="white"/>
<path d="M11.5899 53.1465C11.2566 54.0827 10.9604 55.0189 10.6642 55.9734L11.1455 56.1203C11.4233 55.1841 11.738 54.2479 12.0527 53.3301L11.5899 53.1465Z" fill="white"/>
<path d="M139.966 94.1562C140.244 93.22 140.521 92.2471 140.762 91.2926L140.281 91.1641C140.04 92.1003 139.781 93.0548 139.484 94.0094L139.966 94.1562Z" fill="white"/>
<path d="M136.522 48.0988L136.985 47.8969C136.578 46.9974 136.152 46.0979 135.708 45.2168L135.263 45.4371C135.708 46.3182 136.133 47.1993 136.522 48.0988Z" fill="white"/>
<path d="M127.265 33.1559L127.654 32.8438C127.025 32.0912 126.377 31.3202 125.729 30.5859L125.358 30.9164C126.006 31.6506 126.654 32.3849 127.265 33.1559Z" fill="white"/>
<path d="M106.752 134.21C107.622 133.752 108.492 133.274 109.344 132.779L109.084 132.356C108.233 132.852 107.363 133.329 106.511 133.77L106.752 134.21Z" fill="white"/>
<path d="M130.801 37.8559L131.209 37.5805C130.653 36.7728 130.079 35.9651 129.487 35.1758L129.08 35.4695C129.672 36.2405 130.246 37.0482 130.801 37.8559Z" fill="white"/>
<path d="M75.5371 8.64993V8.1543C74.5559 8.1543 73.5376 8.17265 72.5564 8.20937L72.5749 8.705C73.5561 8.66829 74.5559 8.64993 75.5371 8.64993Z" fill="white"/>
<path d="M66.5209 9.23719L66.669 9.21883C67.6502 9.09034 68.6315 8.98019 69.6127 8.90677L69.5757 8.41113C68.5944 8.50292 67.5947 8.5947 66.6134 8.7232L66.4653 8.74156L66.5209 9.23719Z" fill="white"/>
<path d="M81.4431 8.9251L81.4802 8.42946C80.4989 8.33768 79.4992 8.26425 78.4994 8.22754L78.4809 8.72317C79.4807 8.75989 80.4619 8.83331 81.4431 8.9251Z" fill="white"/>
<path d="M98.7352 12.8352L98.9018 12.3762C97.9761 12.0275 97.0134 11.697 96.0877 11.4033L95.9396 11.8622C96.8653 12.1559 97.8095 12.4864 98.7352 12.8352Z" fill="white"/>
<path d="M93.0884 11.0184L93.218 10.5411C92.2553 10.2841 91.2926 10.0455 90.3113 9.8252L90.2003 10.3025C91.1815 10.5228 92.1442 10.7614 93.0884 11.0184Z" fill="white"/>
<path d="M87.312 9.71452L87.4046 9.23724C86.4234 9.05367 85.4421 8.90682 84.4609 8.77832L84.3868 9.27395C85.3496 9.3841 86.3493 9.53095 87.312 9.71452Z" fill="white"/>
<path d="M133.893 42.8488L134.319 42.6102C133.838 41.7474 133.338 40.903 132.819 40.0586L132.394 40.3156C132.912 41.1416 133.412 41.9861 133.893 42.8488Z" fill="white"/>
<path d="M125.451 119.764C126.117 119.029 126.765 118.277 127.395 117.524L127.006 117.212C126.377 117.965 125.729 118.717 125.081 119.433L125.451 119.764Z" fill="white"/>
<path d="M129.246 115.193C129.839 114.403 130.431 113.596 130.987 112.788L130.579 112.513C130.024 113.32 129.45 114.128 128.857 114.899L129.246 115.193Z" fill="white"/>
<path d="M132.616 110.31C133.134 109.484 133.653 108.621 134.134 107.758L133.708 107.52C133.227 108.364 132.727 109.227 132.208 110.053L132.616 110.31Z" fill="white"/>
<path d="M111.899 131.218C112.732 130.686 113.565 130.135 114.361 129.566L114.083 129.162C113.287 129.731 112.454 130.282 111.639 130.814L111.899 131.218Z" fill="white"/>
<path d="M135.541 105.152C135.985 104.271 136.43 103.371 136.837 102.49L136.393 102.288C135.985 103.169 135.559 104.069 135.115 104.931L135.541 105.152Z" fill="white"/>
<path d="M116.749 127.804C117.527 127.198 118.304 126.574 119.064 125.932L118.749 125.564C118.008 126.207 117.231 126.813 116.453 127.418L116.749 127.804Z" fill="white"/>
<path d="M121.267 123.967C121.989 123.288 122.711 122.609 123.396 121.911L123.044 121.562C122.359 122.26 121.637 122.939 120.933 123.618L121.267 123.967Z" fill="white"/>
<path d="M141.484 64.9502L141.965 64.8767C141.817 63.9038 141.632 62.9309 141.447 61.958L140.966 62.0498C141.169 63.0227 141.336 63.9956 141.484 64.9502Z" fill="white"/>
<path d="M137.985 99.7545C138.355 98.8366 138.707 97.9004 139.022 96.9826L138.559 96.8174C138.244 97.7352 137.892 98.6714 137.522 99.5709L137.985 99.7545Z" fill="white"/>
<path d="M138.688 53.5689L139.151 53.4037C138.836 52.4675 138.485 51.5313 138.133 50.6318L137.67 50.8154C138.022 51.7149 138.374 52.6327 138.688 53.5689Z" fill="white"/>
<path d="M140.336 59.2043L140.817 59.0941C140.577 58.1396 140.318 57.185 140.04 56.2305L139.558 56.3773C139.855 57.2952 140.114 58.2497 140.336 59.2043Z" fill="white"/>
<path d="M142.632 70.7506C142.576 69.7777 142.484 68.7864 142.373 67.8135L141.873 67.8685C141.984 68.8415 142.058 69.8327 142.132 70.7873L142.632 70.7506Z" fill="white"/>
<path d="M141.41 88.4101C141.614 87.4556 141.78 86.4643 141.947 85.4914L141.465 85.418C141.317 86.3725 141.132 87.3454 140.947 88.3L141.41 88.4101Z" fill="white"/>
<path d="M142.354 82.5724C142.465 81.5995 142.558 80.6083 142.632 79.6353L142.132 79.5986C142.058 80.5715 141.984 81.5628 141.873 82.5174L142.354 82.5724Z" fill="white"/>
<path d="M142.743 76.6615C142.761 75.6886 142.761 74.679 142.743 73.7061L142.243 73.7244C142.262 74.6973 142.262 75.6886 142.243 76.6615H142.743Z" fill="white"/>
<path d="M94.9028 110.457C92.4589 106.326 85.6088 105.427 89.219 102.802C89.1079 102.875 90.6075 101.59 90.9593 101.187C91.1074 101.021 91.2185 100.893 91.3111 100.801C91.3666 100.709 91.4221 100.581 91.5147 100.434C91.6628 100.177 92.2368 98.7084 92.0701 99.3142C92.2182 98.8369 92.3664 98.3596 92.4589 97.864C92.496 97.607 92.533 97.4418 92.5515 97.3316C92.57 97.0379 92.607 96.7626 92.6255 96.4689C92.6626 95.6979 92.6996 94.9269 92.7181 94.1559C92.7366 92.4671 92.7181 90.7599 92.7181 89.0711C92.7181 86.8316 93.4587 85.0693 94.6251 83.7843C92.5145 82.4259 90.2187 82.2607 89.4041 83.4172L89.1079 83.8394L87.8119 85.6567L87.7379 85.7669L86.7751 85.0877L88.0526 83.2887L89.3486 81.4714L90.3854 80.0028C91.2555 78.7913 90.1817 76.5517 87.9971 75.0281C85.8124 73.5045 83.3315 73.2475 82.4614 74.4591L81.4246 75.9276L80.1286 77.7449L78.8512 79.5439L77.8884 78.8647L83.7203 70.6775C83.7759 70.6041 83.8129 70.5491 83.8684 70.494L91.5332 59.7185C92.9403 57.7544 92.2923 54.909 90.1076 53.3854C87.923 51.8618 85.0163 52.2106 83.6092 54.1748L75.9815 64.9319C75.9259 65.0053 75.8889 65.0604 75.8519 65.1338H75.8334L58.9671 88.8508L54.5053 97.4969L53.2648 73.5596C53.9499 70.7326 54.3572 67.9975 52.0059 66.3637C49.6546 64.7116 46.3961 65.2806 44.7484 67.612L43.3599 87.676C43.3599 87.676 41.0271 93.1463 42.6563 101.719L46.4517 109.3C46.5998 152.916 49.1547 137.974 46.5998 141.48L78.8141 145.096C79.7213 141.48 78.9993 123.821 78.9993 123.821C80.2952 123.417 83.961 122.315 85.8124 121.342C86.7011 120.883 88.1452 119.966 89.904 117.818C93.0884 113.486 95.7174 111.815 94.9028 110.457Z" fill="#EDBDA9"/>
<path d="M105.937 46.4284C103.752 44.9048 100.846 45.2536 99.4387 47.2177L91.7739 58.0115C91.7183 58.085 91.6813 58.14 91.6443 58.2135H91.6258L74.7595 81.9305L74.6855 81.8754C74.704 81.9672 74.7225 82.059 74.7225 82.1508C75.2964 85.6569 75.5556 89.7321 76.7961 93.1098C76.7961 93.1098 76.7961 93.1098 76.8146 93.1281C76.8331 93.1281 76.8516 93.1465 76.8701 93.1465C76.8886 92.9996 77.0923 93.1832 77.2034 93.3301C77.2219 93.3484 77.2589 93.3484 77.2774 93.3668C77.333 93.3851 77.407 93.4035 77.4811 93.4219C77.9439 93.5687 78.4253 93.7156 78.8882 93.8257C78.9252 93.8257 78.9622 93.8441 78.9992 93.8441C78.9992 93.8441 78.9992 93.8441 78.9992 93.8257C79.5176 93.1281 80.036 92.4122 80.5359 91.6963C83.6833 87.254 86.5715 82.6648 89.33 78.0021C90.7001 75.6892 92.7736 74.4593 94.9583 74.1472C94.8842 73.5231 94.8842 72.8806 94.9398 72.2564L94.6991 72.6052L93.7364 71.926L96.1247 68.5667C96.3654 68.1445 96.6431 67.759 96.9578 67.3919L99.5683 63.7389C99.6238 63.6655 99.6608 63.6104 99.7164 63.5553L107.381 52.7799C108.751 50.7973 108.122 47.9704 105.937 46.4284Z" fill="#EDBDA9"/>
<path fill-rule="evenodd" clip-rule="evenodd" d="M98.8463 110.916C98.8463 112.311 97.6799 113.449 96.2358 113.449H55.7457C54.3201 113.449 53.1353 112.311 53.1353 110.916V30.293C53.1353 28.8979 54.3016 27.7598 55.7457 27.7598H96.2358C97.6614 27.7598 98.8463 28.8979 98.8463 30.293V110.916Z" fill="#123544"/>
<path fill-rule="evenodd" clip-rule="evenodd" d="M94.6806 37.2129H93.5883H91.4962H89.1264H87.1269H86.9973H84.3313H77.6478H75.315H72.9452H70.705H67.3725H65.2989H58.7635H58.5228H56.4493H55.2458V46.3546V48.8144V55.6064V63.8303V65.8679V86.2807V88.1163V97.5518V100.012V106.161H55.394H57.5416H62.2812H65.0027H65.2989H67.0578H67.3725H69.4276H69.7238H71.5382H77.8699H77.981H80.2397H85.8495H88.1452H88.6636H91.4222H96.7542V100.526V96.7624V95.8629V94.7248V92.5036V91.5491V89.0342V65.8679V63.8303V58.4701V55.6064V43.4542V41.178V37.2129H94.6806Z" fill="white"/>
<path d="M86.6085 131.384H34.8249V185.133H86.6085V131.384Z" fill="white"/>
<path d="M76.7035 138.396C77.9995 138.469 79.1288 137.478 79.2029 136.193C79.2769 134.908 78.2772 133.788 76.9812 133.733C75.6852 133.66 74.5559 134.651 74.4818 135.936C74.4078 137.221 75.4075 138.323 76.7035 138.396Z" fill="#123544"/>
<path d="M88.7931 141.039H31.659V185.132H88.7931V141.039Z" fill="#123544"/>
<path d="M68.8906 114.789C69.0573 114.147 69.1869 113.504 69.298 112.862C69.1869 112.513 69.5386 105.684 61.4851 100.086C57.7637 97.4973 53.3759 98.0847 51.3579 98.2499V114.771H68.8906V114.789Z" fill="#EDBDA9"/>
<path d="M104.419 91.4023C104.937 93.3481 103.827 95.3123 101.938 95.8079L93.2736 98.0841C91.3851 98.5798 89.4412 97.4049 88.9228 95.4775C88.4044 93.5316 89.5152 91.5675 91.4037 91.0718L100.068 88.7956C101.938 88.2816 103.901 89.4564 104.419 91.4023Z" fill="#EDBDA9"/>
<path d="M104.234 82.885C104.734 84.9043 103.604 86.9052 101.716 87.3824L93.0143 89.5118C91.1259 89.9708 89.1819 88.7225 88.682 86.7032C88.1822 84.684 89.3115 82.6831 91.1999 82.2058L99.9015 80.0764C101.79 79.6175 103.734 80.8841 104.234 82.885Z" fill="#EDBDA9"/>
<path d="M103.475 71.5587C104.512 73.7615 103.771 76.2764 101.79 77.1943L92.7181 81.4347C90.7371 82.3525 88.2933 81.3245 87.2565 79.1217C86.2197 76.9189 86.9603 74.404 88.9413 73.4862L98.0131 69.2458C99.9941 68.3279 102.438 69.3559 103.475 71.5587Z" fill="#EDBDA9"/>
<path opacity="0.3" d="M91.1444 73.9639C91.1444 73.9639 92.1627 75.3039 92.8662 76.6623C93.4587 77.8188 93.7549 79.012 93.7549 79.012L90.9408 80.4438C90.9408 80.4438 89.7374 79.9115 88.9228 78.2043C88.1452 76.5705 88.3488 75.3957 88.3488 75.3957L91.1444 73.9639Z" fill="white"/>
<path opacity="0.3" d="M47.544 68.8422C47.544 68.8422 46.5813 67.7775 44.7669 67.7041C44.7484 67.7041 44.7299 67.7041 44.7299 67.7041C44.6743 68.7872 44.3966 72.6788 44.3226 73.9638C44.3411 73.9638 44.3596 73.9638 44.3781 73.9638C45.9148 73.9638 47.581 73.5232 47.581 73.5232L47.544 68.8422Z" fill="white"/>
<path opacity="0.3" d="M93.4772 82.7568C93.4772 82.7568 94.1992 84.1703 94.6066 85.5471C94.9583 86.7219 94.9768 87.8967 94.9768 87.8967L91.8109 88.8146C91.8109 88.8146 90.7186 88.117 90.2743 86.3915C89.8485 84.7394 90.3113 83.6747 90.3113 83.6747L93.4772 82.7568Z" fill="white"/>
<path opacity="0.3" d="M93.0699 91.7148C93.0699 91.7148 93.7364 93.0365 94.1252 94.3399C94.4399 95.4413 94.4955 96.5427 94.4955 96.5427L91.6998 97.3504C91.6998 97.3504 90.7186 96.6895 90.2928 95.0741C89.8855 93.5138 90.2928 92.5409 90.2928 92.5409L93.0699 91.7148Z" fill="white"/>
<path d="M84.5872 54.8669V53.1687C84.5872 50.9545 83.7076 48.8311 82.142 47.2655C80.5764 45.6999 78.4529 44.8203 76.2388 44.8203C74.0247 44.8203 71.9013 45.6999 70.3357 47.2655C68.77 48.8311 67.8905 50.9545 67.8905 53.1687V54.8669C66.8283 55.3305 65.9242 56.0936 65.2888 57.0628C64.6534 58.032 64.3141 59.1654 64.3126 60.3244V67.4801C64.3145 69.061 64.9434 70.5767 66.0613 71.6946C67.1792 72.8125 68.6948 73.4413 70.2757 73.4432H82.2019C83.7829 73.4413 85.2985 72.8125 86.4164 71.6946C87.5343 70.5767 88.1631 69.061 88.165 67.4801V60.3244C88.1635 59.1654 87.8243 58.032 87.1889 57.0628C86.5535 56.0936 85.6494 55.3305 84.5872 54.8669ZM70.2757 53.1687C70.2757 51.5871 70.904 50.0704 72.0223 48.9521C73.1406 47.8338 74.6573 47.2056 76.2388 47.2056C77.8203 47.2056 79.3371 47.8338 80.4554 48.9521C81.5737 50.0704 82.2019 51.5871 82.2019 53.1687V54.3613H70.2757V53.1687ZM85.7798 67.4801C85.7798 68.429 85.4028 69.3391 84.7319 70.01C84.0609 70.681 83.1508 71.058 82.2019 71.058H70.2757C69.3268 71.058 68.4168 70.681 67.7458 70.01C67.0748 69.3391 66.6979 68.429 66.6979 67.4801V60.3244C66.6979 59.3755 67.0748 58.4654 67.7458 57.7945C68.4168 57.1235 69.3268 56.7465 70.2757 56.7465H82.2019C83.1508 56.7465 84.0609 57.1235 84.7319 57.7945C85.4028 58.4654 85.7798 59.3755 85.7798 60.3244V67.4801Z" fill="#B92362"/>
<path d="M76.2388 61.5176C75.9225 61.5176 75.6192 61.6432 75.3955 61.8669C75.1719 62.0905 75.0462 62.3939 75.0462 62.7102V65.0954C75.0462 65.4117 75.1719 65.7151 75.3955 65.9388C75.6192 66.1624 75.9225 66.2881 76.2388 66.2881C76.5551 66.2881 76.8585 66.1624 77.0821 65.9388C77.3058 65.7151 77.4314 65.4117 77.4314 65.0954V62.7102C77.4314 62.3939 77.3058 62.0905 77.0821 61.8669C76.8585 61.6432 76.5551 61.5176 76.2388 61.5176Z" fill="#B92362"/>
</g>
<defs>
<clipPath id="clip0_2813_4244">
<rect width="151" height="185" fill="white" transform="translate(0.5 0.132812)"/>
</clipPath>
</defs>
</svg>
