<svg width="152" height="185" viewBox="0 0 152 185" fill="none" xmlns="http://www.w3.org/2000/svg">
<g clip-path="url(#clip0_2813_3764)">
<path d="M76 130.15C106.798 130.15 131.764 105.395 131.764 74.8591C131.764 44.3229 106.798 19.5684 76 19.5684C45.2023 19.5684 20.2359 44.3229 20.2359 74.8591C20.2359 105.395 45.2023 130.15 76 130.15Z" fill="white"/>
<path d="M1.0555 75.7586C0.814816 55.4743 8.88691 35.1717 25.0496 20.321C41.1938 5.4887 62.2442 -0.936187 82.6281 0.844424L83.165 0.34879C81.7394 0.220292 80.3138 0.110152 78.8883 0.0550811C58.7265 -0.715905 39.4905 6.35147 24.6978 19.9355C9.90518 33.5379 1.31469 52.0232 0.555621 71.9955C0.500079 73.4273 0.481565 74.8408 0.518593 76.2542L1.0555 75.7586Z" fill="white"/>
<path d="M140.725 37.3192L141.132 36.9521C138.392 32.3445 135.134 27.9939 131.394 23.9922C126.062 18.2832 119.971 13.5104 113.343 9.76562L112.917 10.1511C119.489 13.8408 125.617 18.5585 131.005 24.3409C134.782 28.3794 138.022 32.7484 140.725 37.3192Z" fill="white"/>
<path d="M150.371 65.5888C153.24 88.5348 145.335 112.509 126.95 129.397C96.6246 157.263 49.0807 155.464 20.995 125.377C15.5889 119.595 11.3122 113.188 8.10923 106.414L7.68341 106.8C10.9419 113.647 15.2741 120.017 20.6062 125.726C34.3065 140.393 52.9501 148.892 73.1118 149.663C93.2735 150.434 112.51 143.367 127.302 129.783C142.095 116.199 150.667 97.7132 151.444 77.7227C151.611 73.4822 151.407 69.2602 150.871 65.1299L150.371 65.5888Z" fill="white"/>
<path d="M21.4948 45.2311C23.7906 41.0824 26.5862 37.1357 29.9372 33.4827C52.4687 8.8295 90.7001 6.47983 116.138 27.8288L116.472 27.4617C104.308 17.2369 88.9227 12.0419 72.9081 12.8313C56.19 13.6573 40.8049 20.8716 29.5669 33.1706C26.1604 36.8971 23.2722 40.9356 20.9209 45.2494H21.4948V45.2311Z" fill="white"/>
<path d="M13.9781 71.3164H13.4598C13.3302 73.5009 13.3302 75.722 13.4412 77.9432C14.2373 93.8219 20.9579 108.489 32.4366 119.485L32.7698 119.118C19.3287 106.231 12.9969 88.6269 13.9781 71.3164Z" fill="white"/>
<path d="M131.098 45.231C130.468 44.0745 129.802 42.9547 129.098 41.835L128.728 42.2388C129.339 43.2301 129.931 44.2213 130.487 45.231H131.098Z" fill="white"/>
<path d="M138.54 71.3164H138.003C138.929 87.2318 133.69 103.496 122.063 116.236C103.012 137.089 72.7415 141.99 48.4697 130.113L48.0994 130.517C57.5971 135.216 68.1871 137.438 79.0918 136.905C95.8099 136.079 111.195 128.865 122.433 116.566C133.671 104.267 139.392 88.3699 138.559 71.7937C138.559 71.6285 138.54 71.4633 138.54 71.3164Z" fill="white"/>
<path d="M101.364 136.593C102.271 136.207 103.197 135.803 104.086 135.4L103.882 134.959C102.993 135.381 102.086 135.767 101.179 136.152L101.364 136.593Z" fill="white"/>
<path d="M21.6244 114.51L21.2357 114.803C21.8281 115.593 22.4391 116.382 23.0685 117.135L23.4573 116.823C22.8093 116.07 22.1984 115.299 21.6244 114.51Z" fill="white"/>
<path d="M18.292 109.663L17.8661 109.92C18.3845 110.746 18.9214 111.591 19.4769 112.398L19.8842 112.123C19.3473 111.315 18.8104 110.489 18.292 109.663Z" fill="white"/>
<path d="M11.1085 93.6191L10.6271 93.766C10.9048 94.7022 11.2011 95.6567 11.5343 96.5929L11.9972 96.4277C11.6824 95.5099 11.3862 94.5553 11.1085 93.6191Z" fill="white"/>
<path d="M29.4929 123.266L29.1597 123.633C29.8817 124.312 30.6223 124.973 31.3813 125.615L31.6961 125.248C30.937 124.587 30.1965 123.926 29.4929 123.266Z" fill="white"/>
<path d="M15.4223 104.542L14.978 104.762C15.4223 105.643 15.8852 106.525 16.3665 107.387L16.7923 107.149C16.3295 106.286 15.8666 105.423 15.4223 104.542Z" fill="white"/>
<path d="M13.0155 99.1816L12.5526 99.3652C12.9229 100.283 13.2932 101.201 13.7005 102.1L14.1448 101.898C13.756 100.999 13.3857 100.081 13.0155 99.1816Z" fill="white"/>
<path d="M95.7544 138.63C96.6986 138.337 97.6429 138.006 98.5686 137.676L98.4019 137.217C97.4762 137.547 96.532 137.878 95.6063 138.171L95.7544 138.63Z" fill="white"/>
<path d="M84.0536 140.686L84.1091 141.182C85.0904 141.053 86.0901 140.906 87.0529 140.741L86.9603 140.264C86.0161 140.411 85.0348 140.576 84.0536 140.686Z" fill="white"/>
<path d="M89.8855 139.676L89.9966 140.153C90.9593 139.933 91.9406 139.713 92.8848 139.456L92.7552 138.979C91.811 139.236 90.8482 139.474 89.8855 139.676Z" fill="white"/>
<path d="M33.9733 127.084L33.6586 127.469C34.4362 128.075 35.2323 128.681 36.0469 129.25L36.3431 128.846C35.547 128.277 34.7509 127.69 33.9733 127.084Z" fill="white"/>
<path d="M38.7869 130.498L38.5092 130.902C39.3423 131.434 40.194 131.967 41.0456 132.462L41.3048 132.04C40.4532 131.563 39.6201 131.03 38.7869 130.498Z" fill="white"/>
<path d="M51.0987 136.758C50.4693 136.519 49.8583 136.262 49.2473 136.005L49.0622 136.464C49.7657 136.758 50.4693 137.033 51.1913 137.308L51.0987 136.758Z" fill="white"/>
<path d="M43.8967 133.49L43.6561 133.931C44.5262 134.39 45.4334 134.849 46.3221 135.271L46.5442 134.83C45.6371 134.39 44.7484 133.949 43.8967 133.49Z" fill="white"/>
<path d="M25.3643 119.062L24.994 119.392C25.6605 120.126 26.3455 120.842 27.0306 121.558L27.3823 121.209C26.6973 120.512 26.0123 119.777 25.3643 119.062Z" fill="white"/>
<path d="M23.6055 32.7662L23.2167 32.4541C22.5872 33.2067 21.9762 33.9961 21.3838 34.7854L21.7726 35.0791C22.365 34.3081 22.976 33.5372 23.6055 32.7662Z" fill="white"/>
<path d="M31.548 24.0283C30.7889 24.6708 30.0483 25.3317 29.3263 25.9925L29.6595 26.3596C30.3816 25.6988 31.1221 25.0379 31.8627 24.4138L31.548 24.0283Z" fill="white"/>
<path d="M27.1972 28.0674C26.5122 28.7649 25.8271 29.4992 25.1606 30.2151L25.5309 30.5456C26.1789 29.8113 26.8639 29.0954 27.5489 28.3978L27.1972 28.0674Z" fill="white"/>
<path d="M35.8247 20.7061C35.1582 21.1833 34.5102 21.6606 33.8622 22.1746L34.1584 22.5601C34.7323 22.1195 35.3063 21.6973 35.8802 21.2751L35.8247 20.7061Z" fill="white"/>
<path d="M63.5957 9.54466L63.5031 9.06738C62.6329 9.21424 61.7443 9.39781 60.8556 9.58137L60.9111 10.077C61.8183 9.87508 62.707 9.70987 63.5957 9.54466Z" fill="white"/>
<path d="M78.1847 141.2L78.2402 141.696C79.203 141.659 80.1842 141.586 81.1469 141.512L81.1099 141.017C80.1472 141.09 79.1659 141.163 78.1847 141.2Z" fill="white"/>
<path d="M19.6435 37.1904C19.088 37.9981 18.5326 38.8425 18.0142 39.6686L18.44 39.9256C18.9584 39.0995 19.4953 38.2735 20.0508 37.4658L19.6435 37.1904Z" fill="white"/>
<path d="M16.4961 42.2207C16.0147 43.0835 15.5334 43.9462 15.0891 44.8274L15.5334 45.0477C15.9777 44.1849 16.4406 43.3038 16.9219 42.4593L16.4961 42.2207Z" fill="white"/>
<path d="M9.8866 58.6865C9.64591 59.6411 9.42375 60.614 9.22009 61.5869L9.70146 61.6787C9.90511 60.7241 10.1088 59.7512 10.3494 58.815L9.8866 58.6865Z" fill="white"/>
<path d="M13.8116 47.5068C13.4043 48.4063 13.0155 49.3242 12.6452 50.242L13.1081 50.4256C13.4783 49.5261 13.8671 48.6082 14.2559 47.7271L13.8116 47.5068Z" fill="white"/>
<path d="M11.5899 53.0137C11.2566 53.9499 10.9604 54.8861 10.6642 55.8406L11.1455 55.9875C11.4233 55.0513 11.738 54.1151 12.0527 53.1972L11.5899 53.0137Z" fill="white"/>
<path d="M139.966 94.0234C140.244 93.0872 140.521 92.1143 140.762 91.1597L140.281 91.0312C140.04 91.9674 139.781 92.922 139.484 93.8766L139.966 94.0234Z" fill="white"/>
<path d="M136.522 47.966L136.985 47.7641C136.578 46.8646 136.152 45.9651 135.708 45.084L135.263 45.3043C135.708 46.1854 136.133 47.0665 136.522 47.966Z" fill="white"/>
<path d="M127.265 33.0231L127.654 32.711C127.025 31.9584 126.377 31.1874 125.729 30.4531L125.358 30.7835C126.006 31.5178 126.654 32.2521 127.265 33.0231Z" fill="white"/>
<path d="M106.752 134.078C107.622 133.619 108.492 133.141 109.344 132.646L109.084 132.224C108.233 132.719 107.363 133.197 106.511 133.637L106.752 134.078Z" fill="white"/>
<path d="M130.801 37.7231L131.209 37.4477C130.653 36.64 130.079 35.8323 129.487 35.043L129.08 35.3367C129.672 36.1077 130.246 36.9154 130.801 37.7231Z" fill="white"/>
<path d="M75.5371 8.51712V8.02148C74.5559 8.02148 73.5376 8.03984 72.5564 8.07655L72.5749 8.57219C73.5561 8.53548 74.5559 8.51712 75.5371 8.51712Z" fill="white"/>
<path d="M66.5209 9.10438L66.669 9.08602C67.6502 8.95752 68.6315 8.84738 69.6127 8.77395L69.5757 8.27832C68.5944 8.3701 67.5947 8.46189 66.6134 8.59039L66.4653 8.60874L66.5209 9.10438Z" fill="white"/>
<path d="M81.4431 8.79229L81.4802 8.29665C80.4989 8.20487 79.4992 8.13144 78.4994 8.09473L78.4809 8.59036C79.4807 8.62707 80.4619 8.7005 81.4431 8.79229Z" fill="white"/>
<path d="M98.7352 12.7023L98.9018 12.2434C97.9761 11.8946 97.0134 11.5642 96.0877 11.2705L95.9396 11.7294C96.8653 12.0231 97.8095 12.3536 98.7352 12.7023Z" fill="white"/>
<path d="M93.0884 10.8856L93.218 10.4083C92.2553 10.1513 91.2926 9.91266 90.3113 9.69238L90.2003 10.1697C91.1815 10.3899 92.1442 10.6286 93.0884 10.8856Z" fill="white"/>
<path d="M87.312 9.58171L87.4046 9.10443C86.4234 8.92086 85.4421 8.77401 84.4609 8.64551L84.3868 9.14114C85.3496 9.25128 86.3493 9.39814 87.312 9.58171Z" fill="white"/>
<path d="M133.893 42.716L134.319 42.4774C133.838 41.6146 133.338 40.7702 132.819 39.9258L132.394 40.1828C132.912 41.0088 133.412 41.8532 133.893 42.716Z" fill="white"/>
<path d="M125.451 119.631C126.117 118.896 126.765 118.144 127.395 117.391L127.006 117.079C126.377 117.832 125.729 118.584 125.081 119.3L125.451 119.631Z" fill="white"/>
<path d="M129.246 115.06C129.839 114.271 130.431 113.463 130.987 112.655L130.579 112.38C130.024 113.188 129.45 113.995 128.857 114.766L129.246 115.06Z" fill="white"/>
<path d="M132.616 110.177C133.134 109.351 133.653 108.488 134.134 107.625L133.708 107.387C133.227 108.231 132.727 109.094 132.208 109.92L132.616 110.177Z" fill="white"/>
<path d="M111.899 131.085C112.732 130.553 113.565 130.002 114.361 129.433L114.083 129.029C113.287 129.598 112.454 130.149 111.639 130.681L111.899 131.085Z" fill="white"/>
<path d="M135.541 105.019C135.985 104.138 136.43 103.238 136.837 102.357L136.393 102.155C135.985 103.036 135.559 103.936 135.115 104.799L135.541 105.019Z" fill="white"/>
<path d="M116.749 127.671C117.527 127.065 118.304 126.441 119.064 125.799L118.749 125.432C118.008 126.074 117.231 126.68 116.453 127.286L116.749 127.671Z" fill="white"/>
<path d="M121.267 123.834C121.989 123.155 122.711 122.476 123.396 121.778L123.044 121.43C122.359 122.127 121.637 122.806 120.933 123.486L121.267 123.834Z" fill="white"/>
<path d="M141.484 64.8174L141.965 64.7439C141.817 63.771 141.632 62.7981 141.447 61.8252L140.966 61.917C141.169 62.8899 141.336 63.8628 141.484 64.8174Z" fill="white"/>
<path d="M137.985 99.6217C138.355 98.7038 138.707 97.7676 139.022 96.8498L138.559 96.6846C138.244 97.6024 137.892 98.5386 137.522 99.4381L137.985 99.6217Z" fill="white"/>
<path d="M138.688 53.4361L139.151 53.2709C138.836 52.3347 138.485 51.3985 138.133 50.499L137.67 50.6826C138.022 51.5821 138.374 52.4999 138.688 53.4361Z" fill="white"/>
<path d="M140.336 59.0715L140.817 58.9613C140.577 58.0068 140.318 57.0522 140.04 56.0977L139.558 56.2445C139.855 57.1623 140.114 58.1169 140.336 59.0715Z" fill="white"/>
<path d="M142.632 70.6178C142.576 69.6448 142.484 68.6536 142.373 67.6807L141.873 67.7357C141.984 68.7086 142.058 69.6999 142.132 70.6545L142.632 70.6178Z" fill="white"/>
<path d="M141.41 88.2773C141.614 87.3228 141.78 86.3315 141.947 85.3586L141.465 85.2852C141.317 86.2397 141.132 87.2126 140.947 88.1672L141.41 88.2773Z" fill="white"/>
<path d="M142.354 82.4396C142.465 81.4667 142.558 80.4754 142.632 79.5025L142.132 79.4658C142.058 80.4387 141.984 81.43 141.873 82.3846L142.354 82.4396Z" fill="white"/>
<path d="M142.743 76.5287C142.761 75.5558 142.761 74.5462 142.743 73.5732L142.243 73.5916C142.262 74.5645 142.262 75.5558 142.243 76.5287H142.743Z" fill="white"/>
<path opacity="0.3" d="M91.1444 73.8311C91.1444 73.8311 92.1627 75.1711 92.8662 76.5295C93.4587 77.686 93.7549 78.8792 93.7549 78.8792L90.9408 80.311C90.9408 80.311 89.7374 79.7787 88.9228 78.0715C88.1452 76.4377 88.3488 75.2629 88.3488 75.2629L91.1444 73.8311Z" fill="white"/>
<path opacity="0.3" d="M47.544 68.7094C47.544 68.7094 46.5813 67.6447 44.7669 67.5713C44.7484 67.5713 44.7299 67.5713 44.7299 67.5713C44.6743 68.6543 44.3966 72.546 44.3226 73.831C44.3411 73.831 44.3596 73.831 44.3781 73.831C45.9148 73.831 47.581 73.3904 47.581 73.3904L47.544 68.7094Z" fill="white"/>
<path opacity="0.3" d="M93.4772 82.624C93.4772 82.624 94.1992 84.0375 94.6066 85.4143C94.9583 86.5891 94.9768 87.7639 94.9768 87.7639L91.8109 88.6818C91.8109 88.6818 90.7186 87.9842 90.2743 86.2587C89.8485 84.6066 90.3113 83.5419 90.3113 83.5419L93.4772 82.624Z" fill="white"/>
<path opacity="0.3" d="M93.0699 91.582C93.0699 91.582 93.7364 92.9037 94.1252 94.2071C94.4399 95.3085 94.4955 96.4099 94.4955 96.4099L91.6998 97.2176C91.6998 97.2176 90.7186 96.5567 90.2928 94.9413C89.8855 93.381 90.2928 92.4081 90.2928 92.4081L93.0699 91.582Z" fill="white"/>
<path d="M112.713 93.7079H53.1401C50.8529 93.7079 48.9528 91.8429 48.9528 89.5206V56.2332C48.9528 53.946 50.8178 52.0459 53.1401 52.0459H112.713C115 52.0459 116.9 53.9108 116.9 56.2332V89.5558C116.9 91.8429 115.035 93.7079 112.713 93.7079Z" fill="white"/>
<path d="M53.5272 91.0689H112.361C112.818 91.0689 113.205 90.6818 113.205 90.2244C113.205 89.7669 112.818 89.3799 112.361 89.3799H53.5272C53.0698 89.3799 52.6827 89.7669 52.6827 90.2244C52.6827 90.6818 53.0698 91.0689 53.5272 91.0689Z" fill="#FFC535"/>
<path d="M112.713 52.0459H110.39V93.7079H112.713C115 93.7079 116.9 91.8429 116.9 89.5206V56.2332C116.9 53.9108 115.035 52.0459 112.713 52.0459Z" fill="#E0DFDE"/>
<path d="M112.713 52.0459H53.1401C50.8529 52.0459 48.9528 53.9108 48.9528 56.2332V63.9745H116.9V56.2332C116.9 53.9108 115.035 52.0459 112.713 52.0459Z" fill="#FFC535"/>
<path d="M116.9 63.9745V56.2332C116.9 53.946 115.035 52.0459 112.713 52.0459H110.39V63.9745H116.9Z" fill="#FFC535"/>
<path d="M67.4965 86.1769H53.6327C53.1049 86.1769 52.6826 85.7547 52.6826 85.2269V68.2313C52.6826 67.7035 53.1049 67.2812 53.6327 67.2812H67.4965C68.0244 67.2812 68.4466 67.7035 68.4466 68.2313V85.2269C68.4466 85.7547 68.0244 86.1769 67.4965 86.1769Z" fill="#FFC535"/>
<path d="M56.7291 75.4793L56.0254 71.6439L56.6588 71.2216C56.2717 70.6586 56.4828 69.8845 57.081 69.5678C57.9959 69.1104 59.4386 68.7233 61.1276 69.4975C64.0129 70.8346 65.2445 70.0253 65.2445 70.0253L64.2944 71.9254L64.7519 72.031L64.3648 75.1626L56.4828 75.7256L56.7291 75.4793Z" fill="#343330"/>
<path d="M62.0777 80.1602H59.0164L55.9199 81.2862C55.4273 81.4621 55.0754 81.9547 55.0754 82.4825V86.142H66.0539V82.4825C66.0539 81.9547 65.702 81.4621 65.2094 81.2862L62.0777 80.1602Z" fill="#343330"/>
<path d="M62.0776 80.3359H59.0163V86.1771H62.0776V80.3359Z" fill="white"/>
<path d="M56.8349 76.7108H57.1515V74.7051H56.8349C56.2719 74.7051 55.8496 75.1625 55.8496 75.6903C55.8496 76.2885 56.307 76.7108 56.8349 76.7108Z" fill="#F4AF9D"/>
<path d="M64.2594 76.7108H63.9427V74.7051H64.2594C64.8224 74.7051 65.2446 75.1625 65.2446 75.6903C65.2446 76.2885 64.8224 76.7108 64.2594 76.7108Z" fill="#F4AF9D"/>
<path d="M60.5647 81.848C59.7202 81.848 59.0164 81.1443 59.0164 80.2998V78.1533H62.0777V80.2998C62.0777 81.1794 61.4092 81.848 60.5647 81.848Z" fill="#F4AF9D"/>
<path d="M60.5648 79.8073C58.6998 79.8073 57.1868 78.2942 57.1868 76.4293V74.7403C57.1868 72.8754 58.6998 71.3623 60.5648 71.3623C62.4297 71.3623 63.9428 72.8754 63.9428 74.7403V76.4293C63.9428 78.2942 62.4297 79.8073 60.5648 79.8073Z" fill="#FCD6C8"/>
<path d="M57.1515 74.7405L58.172 72.383C58.172 72.383 60.0017 71.5033 62.9927 72.383L63.9427 74.7405L64.189 73.0867L62.6408 71.1162H60.5295H58.1368L56.6941 73.3682L57.1515 74.7405Z" fill="#343330"/>
<path d="M113.874 67.2812H106.907V69.0054H113.874V67.2812Z" fill="#343330"/>
<path d="M113.874 69.6045H106.907V70.2027H113.874V69.6045Z" fill="#343330"/>
<path d="M113.874 70.7295H106.907V71.3277H113.874V70.7295Z" fill="#343330"/>
<path d="M113.874 74.1777H106.907V74.7759H113.874V74.1777Z" fill="#343330"/>
<path d="M113.874 75.3389H106.907V75.9371H113.874V75.3389Z" fill="#343330"/>
<path d="M113.874 78.7881H106.907V79.3863H113.874V78.7881Z" fill="#343330"/>
<path d="M113.874 71.8906H106.907V73.6148H113.874V71.8906Z" fill="#343330"/>
<path d="M113.874 76.5H106.907V78.2242H113.874V76.5Z" fill="#343330"/>
<path d="M113.874 79.9834H106.907V81.7076H113.874V79.9834Z" fill="#343330"/>
<path d="M113.874 82.1299H106.907V82.7281H113.874V82.1299Z" fill="#343330"/>
<path d="M113.874 83.291H106.907V83.8892H113.874V83.291Z" fill="#343330"/>
<path d="M113.874 84.4521H106.907V86.1763H113.874V84.4521Z" fill="#343330"/>
<path d="M98.6024 67.2812H72.0007V70.1666H98.6024V67.2812Z" fill="#FFBC00"/>
<path d="M103.881 84.9111H95.7876V86.1427H103.881V84.9111Z" fill="#FFBC00"/>
<path d="M103.881 83.2568H95.7876V84.4884H103.881V83.2568Z" fill="#FFBC00"/>
<path d="M80.4105 72.5947H72.0007V75.4801H80.4105V72.5947Z" fill="#343330"/>
<path d="M80.4105 77.9434H72.0007V80.8287H80.4105V77.9434Z" fill="#343330"/>
<path d="M80.4105 83.2568H72.0007V86.1422H80.4105V83.2568Z" fill="#343330"/>
<path d="M80.3754 72.5947H76.188V75.4801H80.3754V72.5947Z" fill="#343330"/>
<path d="M80.3754 77.9434H76.188V80.8287H80.3754V77.9434Z" fill="#343330"/>
<path d="M80.3754 83.2568H76.188V86.1422H80.3754V83.2568Z" fill="#343330"/>
<path d="M86.0757 72.5947H81.8884V75.4801H86.0757V72.5947Z" fill="#343330"/>
<path d="M86.0757 77.9434H81.8884V80.8287H86.0757V77.9434Z" fill="#343330"/>
<path d="M86.0757 83.2568H81.8884V86.1422H86.0757V83.2568Z" fill="#343330"/>
<path d="M91.7762 72.5947H87.5889V75.4801H91.7762V72.5947Z" fill="#343330"/>
<path d="M91.7762 77.9434H87.5889V80.8287H91.7762V77.9434Z" fill="#343330"/>
<path d="M91.7762 83.2568H87.5889V86.1422H91.7762V83.2568Z" fill="#343330"/>
<path d="M112.361 89.3447H110.39V91.0337H112.361C112.818 91.0337 113.205 90.6467 113.205 90.1892C113.205 89.7318 112.818 89.3447 112.361 89.3447Z" fill="#FFC535"/>
<path d="M76.5398 56.3037V60.1743H75.6602V56.3037H76.5398Z" fill="white"/>
<path d="M80.6567 58.239C80.6567 59.3298 79.8474 60.1743 78.7566 60.1743H77.2084V56.3037H78.7566C79.8474 56.3037 80.6567 57.1482 80.6567 58.239ZM79.8122 58.239C79.8122 57.5705 79.39 57.1482 78.7918 57.1482H78.1233V59.3298H78.7918C79.39 59.3298 79.8122 58.9076 79.8122 58.239Z" fill="white"/>
<path d="M82.3809 58.2391C82.3809 57.1131 83.2254 56.2334 84.3865 56.2334C85.0903 56.2334 85.7237 56.5853 86.0404 57.1483L85.2662 57.6057C85.0903 57.289 84.7736 57.1131 84.3514 57.1131C83.6476 57.1131 83.2254 57.5705 83.2254 58.2743C83.2254 58.978 83.6828 59.4355 84.3514 59.4355C84.7384 59.4355 85.0903 59.2595 85.2662 58.9428L86.0404 59.4003C85.7237 59.9633 85.0903 60.3151 84.3865 60.3151C83.2254 60.28 82.3809 59.4003 82.3809 58.2391Z" fill="white"/>
<path d="M88.7499 59.5761H87.3072L87.0961 60.1743H86.1108L87.448 56.3037H88.574L89.9111 60.1743H88.9258L88.7499 59.5761ZM88.4684 58.7316L88.011 57.289L87.5535 58.7316H88.4684Z" fill="white"/>
<path d="M91.5649 58.9076H91.1427V60.1743H90.2278V56.3037H91.776C92.515 56.3037 93.1132 56.9019 93.1132 57.6408C93.1132 58.1335 92.8317 58.5557 92.4094 58.7668L93.2187 60.2095H92.2687L91.5649 58.9076ZM91.1427 58.1335H91.8112C92.0575 58.1335 92.2687 57.9223 92.2687 57.6408C92.2687 57.3593 92.0575 57.1482 91.8112 57.1482H91.1427V58.1335Z" fill="white"/>
<path d="M97.0893 58.239C97.0893 59.3298 96.28 60.1743 95.1892 60.1743H93.6409V56.3037H95.1892C96.28 56.3037 97.0893 57.1482 97.0893 58.239ZM96.2448 58.239C96.2448 57.5705 95.8226 57.1482 95.2244 57.1482H94.5558V59.3298H95.2244C95.8226 59.3298 96.2448 58.9076 96.2448 58.239Z" fill="white"/>
<path d="M73.5489 55.8105H68.6227V60.7368H73.5489V55.8105Z" fill="#FFBC00"/>
<path d="M34.2091 84.3127L48.9879 63.5872V53.3125L38.2557 60.1741C38.2557 60.2092 23.4066 78.2604 34.2091 84.3127Z" fill="#DD9A68"/>
<path d="M10.4927 81.7438L28.7198 46.2748C29.705 44.3395 31.57 42.9672 33.6812 42.6153L55.2863 38.7447C57.1513 38.428 59.0866 38.8503 60.5997 39.9763L65.913 43.8469L10.4927 81.7438Z" fill="#F2B681"/>
<path d="M7.85358 139.627V90.5405C7.85358 87.4088 8.76845 84.3475 10.4926 81.7436L31.0773 50.4972C32.7311 47.9988 35.335 46.2747 38.2908 45.782L58.2069 42.1225C59.2625 41.9114 60.3885 42.017 61.4089 42.3337L75.5191 46.9432C77.8415 47.6822 78.4397 50.7435 76.5396 52.2565C74.3227 54.0511 69.2557 55.8808 60.3533 53.664C59.2977 53.3825 58.1717 53.4529 57.1512 53.7696L43.9207 58.1328C43.4985 58.2736 43.1818 58.5903 43.0059 59.0125L35.0887 79.1046C32.9071 84.8753 34.5961 91.4202 39.3464 95.3964C43.0059 98.4577 47.8969 99.5133 52.4713 98.2466L65.4907 94.2704C65.4907 94.2704 81.501 86.2828 84.5623 97.6132C84.6679 98.0355 84.4919 98.4577 84.1049 98.6688L52.6121 113.94C52.6121 113.94 48.5655 123.406 42.0206 125.974V139.627H7.85358Z" fill="#FFD7AE"/>
<path d="M76.8918 47.8231C76.5399 47.436 76.0825 47.1193 75.5547 46.9434L65.4559 43.6357L65.0336 45.184C64.8577 45.8877 65.2447 46.6267 65.9485 46.873C68.7635 47.8582 75.6251 49.8991 76.8918 47.8231Z" fill="white"/>
<path d="M82.4514 96.7687C81.5718 95.7483 80.1643 95.3612 78.8975 95.7131C76.2584 96.3816 73.4786 97.9651 72.0008 98.8799C71.3674 99.267 71.1563 100.041 71.4729 100.71L73.1619 104.017L83.8589 98.8448C83.5071 98.141 83.0144 97.4373 82.4514 96.7687Z" fill="white"/>
<path d="M35.2296 139.628V131.359C35.2296 129.67 36.2501 128.157 37.8335 127.559L41.9856 125.94V139.628H35.2296Z" fill="#F2B681"/>
<path d="M49.3044 177.736H0.49939V156.658C0.49939 155.884 1.13276 155.251 1.90689 155.251H47.9321C48.7062 155.251 49.3396 155.884 49.3396 156.658V177.736H49.3044Z" fill="#343330"/>
<path d="M49.3046 177.736H35.2296V155.251H47.8971C48.6712 155.251 49.3046 155.884 49.3046 156.658V177.736Z" fill="#21201D"/>
<path d="M46.2783 155.251H3.56073V138.783C3.56073 138.009 4.1941 137.376 4.96823 137.376H44.906C45.6801 137.376 46.3135 138.009 46.3135 138.783V155.251H46.2783Z" fill="white"/>
<path d="M46.2785 155.251H35.2296V137.376H44.871C45.6451 137.376 46.2785 138.009 46.2785 138.783V155.251Z" fill="#E0DFDE"/>
</g>
<defs>
<clipPath id="clip0_2813_3764">
<rect width="151" height="185" fill="white" transform="translate(0.5)"/>
</clipPath>
</defs>
</svg>
