<svg width="20" height="20" viewBox="0 0 20 20" fill="none" xmlns="http://www.w3.org/2000/svg">
<path d="M9.75 1C4.91797 1 1 4.91797 1 9.75C1 14.582 4.91797 18.5 9.75 18.5C14.582 18.5 18.5 14.582 18.5 9.75C18.5 4.91797 14.582 1 9.75 1ZM12.9805 13.0742L11.6914 13.0684L9.75 10.7539L7.81055 13.0664L6.51953 13.0723C6.43359 13.0723 6.36328 13.0039 6.36328 12.916C6.36328 12.8789 6.37695 12.8438 6.40039 12.8145L8.94141 9.78711L6.40039 6.76172C6.37679 6.73309 6.36369 6.69725 6.36328 6.66016C6.36328 6.57422 6.43359 6.50391 6.51953 6.50391L7.81055 6.50977L9.75 8.82422L11.6895 6.51172L12.9785 6.50586C13.0645 6.50586 13.1348 6.57422 13.1348 6.66211C13.1348 6.69922 13.1211 6.73438 13.0977 6.76367L10.5605 9.78906L13.0996 12.8164C13.123 12.8457 13.1367 12.8809 13.1367 12.918C13.1367 13.0039 13.0664 13.0742 12.9805 13.0742Z" fill="#BABABA"/>
</svg>
