<svg width="25" height="25" viewBox="0 0 25 25" fill="none" xmlns="http://www.w3.org/2000/svg">
<path d="M13.3333 0.729004C7.29321 0.729004 2.39575 5.62646 2.39575 11.6665C2.39575 17.7065 7.29321 22.604 13.3333 22.604C19.3733 22.604 24.2708 17.7065 24.2708 11.6665C24.2708 5.62646 19.3733 0.729004 13.3333 0.729004ZM17.3713 15.8218L15.76 15.8145L13.3333 12.9214L10.9089 15.812L9.29517 15.8193C9.18774 15.8193 9.09985 15.7339 9.09985 15.624C9.09985 15.5776 9.11694 15.5337 9.14624 15.4971L12.3225 11.7129L9.14624 7.93115C9.11674 7.89537 9.10037 7.85057 9.09985 7.8042C9.09985 7.69678 9.18774 7.60889 9.29517 7.60889L10.9089 7.61621L13.3333 10.5093L15.7576 7.61865L17.3689 7.61133C17.4763 7.61133 17.5642 7.69678 17.5642 7.80664C17.5642 7.85303 17.5471 7.89697 17.5178 7.93359L14.3464 11.7153L17.5203 15.4995C17.5496 15.5361 17.5667 15.5801 17.5667 15.6265C17.5667 15.7339 17.4788 15.8218 17.3713 15.8218Z" fill="#FFC535"/>
</svg>
