<svg width="26" height="26" viewBox="0 0 26 26" fill="none" xmlns="http://www.w3.org/2000/svg">
<path d="M24.5988 10.4153L16.6978 2.51325C15.7199 1.53824 14.3953 0.990723 13.0144 0.990723C11.6335 0.990723 10.309 1.53824 9.33111 2.51325L1.43007 10.4153C1.13885 10.7047 0.907957 11.049 0.750783 11.4282C0.593609 11.8075 0.513278 12.2142 0.514447 12.6247V22.8507C0.514447 23.6795 0.843687 24.4744 1.42974 25.0604C2.01579 25.6465 2.81064 25.9757 3.63944 25.9757H22.3894C23.2182 25.9757 24.0131 25.6465 24.5991 25.0604C25.1852 24.4744 25.5144 23.6795 25.5144 22.8507V12.6247C25.5156 12.2142 25.4353 11.8075 25.2781 11.4282C25.1209 11.049 24.89 10.7047 24.5988 10.4153ZM16.1394 23.8924H9.88944V19.7945C9.88944 18.9657 10.2187 18.1708 10.8047 17.5848C11.3908 16.9987 12.1856 16.6695 13.0144 16.6695C13.8432 16.6695 14.6381 16.9987 15.2241 17.5848C15.8102 18.1708 16.1394 18.9657 16.1394 19.7945V23.8924ZM23.4311 22.8507C23.4311 23.127 23.3213 23.3919 23.126 23.5873C22.9306 23.7826 22.6657 23.8924 22.3894 23.8924H18.2228V19.7945C18.2228 18.4131 17.674 17.0884 16.6973 16.1116C15.7205 15.1349 14.3958 14.5862 13.0144 14.5862C11.6331 14.5862 10.3083 15.1349 9.33159 16.1116C8.35484 17.0884 7.80611 18.4131 7.80611 19.7945V23.8924H3.63944C3.36318 23.8924 3.09823 23.7826 2.90288 23.5873C2.70753 23.3919 2.59778 23.127 2.59778 22.8507V12.6247C2.59874 12.3486 2.70839 12.0841 2.90299 11.8882L10.804 3.98929C11.3912 3.40484 12.186 3.07673 13.0144 3.07673C13.8429 3.07673 14.6377 3.40484 15.2249 3.98929L23.1259 11.8914C23.3197 12.0864 23.4293 12.3497 23.4311 12.6247V22.8507Z" fill="#5B5B5B"/>
</svg>
