<svg width="49" height="49" viewBox="0 0 49 49" fill="none" xmlns="http://www.w3.org/2000/svg">
<rect x="0.0702209" width="48.1365" height="48.1365" rx="15" fill="#FFC535"/>
<path d="M36.293 21.0003L28.392 13.0982C27.4141 12.1232 26.0895 11.5757 24.7087 11.5757C23.3278 11.5757 22.0032 12.1232 21.0253 13.0982L13.1243 21.0003C12.8331 21.2896 12.6022 21.6339 12.445 22.0132C12.2878 22.3924 12.2075 22.7991 12.2087 23.2097V33.4357C12.2087 34.2645 12.5379 35.0593 13.124 35.6454C13.71 36.2314 14.5049 36.5607 15.3337 36.5607H34.0836C34.9124 36.5607 35.7073 36.2314 36.2933 35.6454C36.8794 35.0593 37.2086 34.2645 37.2086 33.4357V23.2097C37.2098 22.7991 37.1295 22.3924 36.9723 22.0132C36.8151 21.6339 36.5842 21.2896 36.293 21.0003ZM27.8336 34.4774H21.5837V30.3794C21.5837 29.5506 21.9129 28.7558 22.4989 28.1697C23.085 27.5837 23.8798 27.2544 24.7087 27.2544C25.5375 27.2544 26.3323 27.5837 26.9184 28.1697C27.5044 28.7558 27.8336 29.5506 27.8336 30.3794V34.4774ZM35.1253 33.4357C35.1253 33.712 35.0156 33.9769 34.8202 34.1723C34.6249 34.3676 34.3599 34.4774 34.0836 34.4774H29.917V30.3794C29.917 28.9981 29.3682 27.6733 28.3915 26.6966C27.4147 25.7198 26.09 25.1711 24.7087 25.1711C23.3273 25.1711 22.0026 25.7198 21.0258 26.6966C20.0491 27.6733 19.5003 28.9981 19.5003 30.3794V34.4774H15.3337C15.0574 34.4774 14.7924 34.3676 14.5971 34.1723C14.4017 33.9769 14.292 33.712 14.292 33.4357V23.2097C14.293 22.9336 14.4026 22.669 14.5972 22.4732L22.4982 14.5742C23.0854 13.9898 23.8802 13.6617 24.7087 13.6617C25.5371 13.6617 26.3319 13.9898 26.9191 14.5742L34.8201 22.4763C35.0139 22.6714 35.1235 22.9347 35.1253 23.2097V33.4357Z" fill="#5B5B5B"/>
</svg>
