<svg width="49" height="43" viewBox="0 0 49 43" fill="none" xmlns="http://www.w3.org/2000/svg">
<path d="M29 42.1823L23.0985 38.1368L18.8065 41.0771L14.5113 38.1352L10.2161 41.0739L5.91278 38.132L0 42.1823V8.51009C0 7.22821 0.509225 5.99883 1.41565 5.09241C2.32208 4.18598 3.55145 3.67676 4.83333 3.67676L24.1667 3.67676C25.4485 3.67676 26.6779 4.18598 27.5844 5.09241C28.4908 5.99883 29 7.22821 29 8.51009V42.1823ZM5.91278 34.2266L10.2144 37.1685L14.5113 34.2266L18.8065 37.1685L23.1001 34.225L25.7778 36.0601V8.51009C25.7778 8.0828 25.608 7.67301 25.3059 7.37086C25.0038 7.06872 24.594 6.89898 24.1667 6.89898H4.83333C4.40604 6.89898 3.99625 7.06872 3.69411 7.37086C3.39196 7.67301 3.22222 8.0828 3.22222 8.51009V36.0601L5.91278 34.2266Z" fill="#FFC535"/>
<path d="M22.5554 16.5654H6.44434V19.7877H22.5554V16.5654Z" fill="#FFC535"/>
<path d="M19.3332 23.0103H6.44434V26.2325H19.3332V23.0103Z" fill="#FFC535"/>
<path d="M33.9954 23.2069L33.4456 25.2586L35.9841 25.9387L36.5245 23.9219C36.6736 23.3655 36.8736 22.8973 37.1245 22.5173C37.3661 22.1721 37.7399 21.7505 38.3063 21.3059L41.0337 19.0551C41.8926 18.3535 42.559 17.6749 43.0235 17.0539C43.488 16.433 43.8321 15.7053 44.0557 14.8707C44.5216 13.132 44.3379 11.592 43.5836 10.2345C42.7851 8.90249 41.4737 7.95478 39.6655 7.47027C37.7182 6.94849 36.1086 7.11353 34.8207 7.88652C33.498 8.6502 32.5757 10.0057 32.0192 11.9437L34.5228 12.6145C35.2285 10.1202 36.7207 9.14104 38.981 9.74668C40.0938 10.0448 40.8445 10.5814 41.3027 11.375C41.7261 12.1594 41.8154 13.0778 41.5173 14.1905C41.3402 14.8512 41.0428 15.4051 40.685 15.9056C40.3273 16.406 39.733 16.9549 38.8835 17.6218L36.3255 19.6571C35.5735 20.2382 35.058 20.771 34.7792 21.2553C34.4656 21.7303 34.219 22.3724 33.9954 23.2069ZM32.3755 28.1398L31.5089 31.3737L34.6038 32.2029L35.4703 28.969L32.3755 28.1398Z" fill="#FFC535"/>
</svg>
