<svg width="20" height="20" viewBox="0 0 20 20" fill="none" xmlns="http://www.w3.org/2000/svg">
<circle cx="10" cy="10" r="10" fill="#FF7676"/>
<path d="M11.1624 8.235L8.29994 8.59375L8.19744 9.06875L8.75994 9.1725C9.12744 9.26 9.19994 9.3925 9.11994 9.75875L8.19744 14.0938C7.95494 15.215 8.32869 15.7425 9.20744 15.7425C9.88869 15.7425 10.6799 15.4275 11.0387 14.995L11.1487 14.475C10.8987 14.695 10.5337 14.7825 10.2912 14.7825C9.94744 14.7825 9.82244 14.5413 9.91119 14.1163L11.1624 8.235ZM11.2499 5.625C11.2499 5.95652 11.1182 6.27446 10.8838 6.50888C10.6494 6.7433 10.3315 6.875 9.99994 6.875C9.66842 6.875 9.35048 6.7433 9.11606 6.50888C8.88164 6.27446 8.74994 5.95652 8.74994 5.625C8.74994 5.29348 8.88164 4.97554 9.11606 4.74112C9.35048 4.5067 9.66842 4.375 9.99994 4.375C10.3315 4.375 10.6494 4.5067 10.8838 4.74112C11.1182 4.97554 11.2499 5.29348 11.2499 5.625Z" fill="white"/>
</svg>
