<svg width="21" height="21" viewBox="0 0 21 21" fill="none" xmlns="http://www.w3.org/2000/svg">
<path d="M20.2516 8.91067L16.0382 4.69727L14.8355 5.90426L18.4956 9.56438H6.5083V11.2668H18.4956L14.8355 14.9269L16.0391 16.1305L20.2525 11.9171C20.4502 11.7195 20.607 11.4849 20.7139 11.2266C20.8209 10.9684 20.876 10.6917 20.876 10.4122C20.876 10.1327 20.8209 9.85591 20.7139 9.5977C20.607 9.33948 20.4502 9.10487 20.2525 8.90726L20.2516 8.91067Z" fill="#010101"/>
<path d="M9.79306 18.0762C9.79306 18.302 9.70338 18.5185 9.54375 18.6781C9.38412 18.8377 9.16762 18.9274 8.94187 18.9274H3.42955C3.2038 18.9274 2.9873 18.8377 2.82767 18.6781C2.66804 18.5185 2.57836 18.302 2.57836 18.0762V2.75475C2.57836 2.529 2.66804 2.31249 2.82767 2.15286C2.9873 1.99323 3.2038 1.90356 3.42955 1.90356H8.94187C9.16762 1.90356 9.38412 1.99323 9.54375 2.15286C9.70338 2.31249 9.79306 2.529 9.79306 2.75475V7.29415H11.4954V2.75475C11.4954 2.0775 11.2264 1.42799 10.7475 0.949097C10.2686 0.470209 9.61912 0.201172 8.94187 0.201172L3.42955 0.201172C2.7523 0.201172 2.10279 0.470209 1.6239 0.949097C1.14501 1.42799 0.875977 2.0775 0.875977 2.75475L0.875977 18.0762C0.875977 18.7535 1.14501 19.403 1.6239 19.8819C2.10279 20.3607 2.7523 20.6298 3.42955 20.6298H8.94187C9.61912 20.6298 10.2686 20.3607 10.7475 19.8819C11.2264 19.403 11.4954 18.7535 11.4954 18.0762V13.5368H9.79306V18.0762Z" fill="#010101"/>
</svg>
