<svg width="49" height="49" viewBox="0 0 49 49" fill="none" xmlns="http://www.w3.org/2000/svg">
<rect x="0.638428" width="48.1365" height="48.1365" rx="15" fill="#FFC535"/>
<path d="M19.2068 11.5H29.2068C31.1959 11.5 33.1036 12.2902 34.5101 13.6967C35.9166 15.1032 36.7068 17.0109 36.7068 19V29C36.7068 30.9891 35.9166 32.8968 34.5101 34.3033C33.1036 35.7098 31.1959 36.5 29.2068 36.5H19.2068C17.2177 36.5 15.31 35.7098 13.9035 34.3033C12.497 32.8968 11.7068 30.9891 11.7068 29V19C11.7068 17.0109 12.497 15.1032 13.9035 13.6967C15.31 12.2902 17.2177 11.5 19.2068 11.5V11.5ZM19.2068 14C17.8807 14 16.6089 14.5268 15.6713 15.4645C14.7336 16.4021 14.2068 17.6739 14.2068 19V29C14.2068 30.3261 14.7336 31.5979 15.6713 32.5355C16.6089 33.4732 17.8807 34 19.2068 34H29.2068C30.5329 34 31.8046 33.4732 32.7423 32.5355C33.68 31.5979 34.2068 30.3261 34.2068 29V19C34.2068 17.6739 33.68 16.4021 32.7423 15.4645C31.8046 14.5268 30.5329 14 29.2068 14H19.2068ZM26.7068 22.75H30.4568C30.7883 22.75 31.1063 22.8817 31.3407 23.1161C31.5751 23.3505 31.7068 23.6685 31.7068 24C31.7068 24.3315 31.5751 24.6495 31.3407 24.8839C31.1063 25.1183 30.7883 25.25 30.4568 25.25H26.7068C26.3753 25.25 26.0573 25.1183 25.8229 24.8839C25.5885 24.6495 25.4568 24.3315 25.4568 24C25.4568 23.6685 25.5885 23.3505 25.8229 23.1161C26.0573 22.8817 26.3753 22.75 26.7068 22.75ZM24.2068 27.75H30.4568C30.7883 27.75 31.1063 27.8817 31.3407 28.1161C31.5751 28.3505 31.7068 28.6685 31.7068 29C31.7068 29.3315 31.5751 29.6495 31.3407 29.8839C31.1063 30.1183 30.7883 30.25 30.4568 30.25H24.2068C23.8753 30.25 23.5573 30.1183 23.3229 29.8839C23.0885 29.6495 22.9568 29.3315 22.9568 29C22.9568 28.6685 23.0885 28.3505 23.3229 28.1161C23.5573 27.8817 23.8753 27.75 24.2068 27.75ZM24.2068 17.75H30.4568C30.7883 17.75 31.1063 17.8817 31.3407 18.1161C31.5751 18.3505 31.7068 18.6685 31.7068 19C31.7068 19.3315 31.5751 19.6495 31.3407 19.8839C31.1063 20.1183 30.7883 20.25 30.4568 20.25H24.2068C23.8753 20.25 23.5573 20.1183 23.3229 19.8839C23.0885 19.6495 22.9568 19.3315 22.9568 19C22.9568 18.6685 23.0885 18.3505 23.3229 18.1161C23.5573 17.8817 23.8753 17.75 24.2068 17.75ZM18.9918 24.3038L21.6443 21.65C21.7604 21.5339 21.8983 21.4419 22.05 21.3791C22.2017 21.3163 22.3643 21.2841 22.5285 21.2841C22.6927 21.2842 22.8552 21.3166 23.0069 21.3795C23.1586 21.4423 23.2964 21.5345 23.4124 21.6506C23.5285 21.7668 23.6205 21.9046 23.6833 22.0563C23.7461 22.208 23.7783 22.3706 23.7783 22.5348C23.7782 22.699 23.7458 22.8616 23.683 23.0132C23.6201 23.1649 23.5279 23.3027 23.4118 23.4187L19.8768 26.9537C19.7607 27.07 19.6228 27.1622 19.4711 27.2251C19.3193 27.288 19.1567 27.3204 18.9924 27.3204C18.8281 27.3204 18.6655 27.288 18.5137 27.2251C18.362 27.1622 18.2241 27.07 18.108 26.9537L16.3405 25.1875C16.1128 24.9517 15.9868 24.636 15.9897 24.3082C15.9925 23.9805 16.124 23.667 16.3558 23.4352C16.5875 23.2035 16.901 23.072 17.2288 23.0692C17.5565 23.0663 17.8723 23.1923 18.108 23.42L18.9918 24.3038Z" fill="#5B5B5B"/>
<circle cx="35" cy="14" r="4" fill="#FE2121"/>
</svg>
