<svg width="19" height="22" viewBox="0 0 19 22" fill="none" xmlns="http://www.w3.org/2000/svg">
<path d="M11.5417 0H3.06914C2.35306 0 1.6663 0.284463 1.15995 0.790812C0.653604 1.29716 0.369141 1.98392 0.369141 2.7V21.6H18.3691V6.8274L11.5417 0ZM12.0691 3.0726L15.2965 6.3H12.0691V3.0726ZM2.16914 19.8V2.7C2.16914 2.46131 2.26396 2.23239 2.43274 2.0636C2.60153 1.89482 2.83045 1.8 3.06914 1.8H10.2691V8.1H16.5691V19.8H2.16914ZM12.9304 11.2113L10.6417 13.5L12.9304 15.7887L11.6578 17.0613L9.36914 14.7726L7.08044 17.0613L5.80784 15.7887L8.09654 13.5L5.80784 11.2113L7.08044 9.9387L9.36914 12.2274L11.6578 9.9387L12.9304 11.2113Z" fill="#BABABA"/>
</svg>
