<svg width="19" height="22" viewBox="0 0 19 22" fill="none" xmlns="http://www.w3.org/2000/svg">
<path d="M16.3888 4.98242L13.2514 1.84502C12.6678 1.25829 11.9737 0.793122 11.2091 0.476431C10.4446 0.159739 9.62485 -0.0021875 8.79732 2.23165e-05H4.73382C3.54079 0.00145139 2.39703 0.476015 1.55342 1.31962C0.709819 2.16322 0.235255 3.30698 0.233826 4.50002V17.1C0.235255 18.293 0.709819 19.4368 1.55342 20.2804C2.39703 21.124 3.54079 21.5986 4.73382 21.6H13.7338C14.9268 21.5986 16.0706 21.124 16.9142 20.2804C17.7578 19.4368 18.2324 18.293 18.2338 17.1V9.43651C18.236 8.60898 18.0741 7.78922 17.7574 7.02468C17.4407 6.26014 16.9755 5.566 16.3888 4.98242ZM15.1162 6.25501C15.3908 6.53798 15.6271 6.85568 15.8191 7.20001H11.9338C11.6951 7.20001 11.4662 7.10519 11.2974 6.93641C11.1286 6.76763 11.0338 6.53871 11.0338 6.30001V2.41472C11.3781 2.60677 11.6958 2.84307 11.9788 3.11762L15.1162 6.25501ZM16.4338 17.1C16.4338 17.8161 16.1493 18.5028 15.643 19.0092C15.1366 19.5155 14.4499 19.8 13.7338 19.8H4.73382C4.01774 19.8 3.33098 19.5155 2.82463 19.0092C2.31829 18.5028 2.03382 17.8161 2.03382 17.1V4.50002C2.03382 3.78393 2.31829 3.09718 2.82463 2.59083C3.33098 2.08448 4.01774 1.80002 4.73382 1.80002H8.79732C8.94582 1.80002 9.08801 1.82882 9.23381 1.84232V6.30001C9.23381 7.0161 9.51828 7.70285 10.0246 8.2092C10.531 8.71555 11.2177 9.00001 11.9338 9.00001H16.3915C16.405 9.14581 16.4338 9.28801 16.4338 9.43651V17.1ZM13.4854 11.9799C13.6497 12.1528 13.7387 12.3838 13.7328 12.6223C13.7269 12.8607 13.6266 13.0871 13.4539 13.2516L10.2238 16.3242C9.71607 16.824 9.03139 17.1028 8.31896 17.0999C7.60654 17.097 6.92412 16.8127 6.42042 16.3089L5.03442 15.0723C4.85611 14.9133 4.74826 14.69 4.73459 14.4516C4.72782 14.3335 4.74438 14.2152 4.78332 14.1035C4.82225 13.9918 4.88281 13.8889 4.96152 13.8006C5.04023 13.7123 5.13557 13.6404 5.24208 13.589C5.34858 13.5375 5.46418 13.5075 5.58227 13.5008C5.82076 13.4871 6.05491 13.5687 6.23322 13.7277L7.65972 15.0003C7.74138 15.092 7.84094 15.166 7.95229 15.2178C8.06363 15.2696 8.18439 15.2981 8.30714 15.3014C8.42989 15.3048 8.55203 15.283 8.66604 15.2374C8.78006 15.1918 8.88354 15.1234 8.97011 15.0363L12.2101 11.9484C12.2958 11.8665 12.3968 11.8023 12.5073 11.7595C12.6179 11.7168 12.7358 11.6963 12.8543 11.6992C12.9728 11.7021 13.0896 11.7284 13.1979 11.7766C13.3062 11.8248 13.4039 11.8939 13.4854 11.9799Z" fill="#BABABA"/>
</svg>
