<svg width="13" height="16" viewBox="0 0 13 16" fill="none" xmlns="http://www.w3.org/2000/svg">
<path d="M5.75047 11.5C5.75047 11.9142 6.08626 12.25 6.50047 12.25C6.91469 12.25 7.25047 11.9142 7.25047 11.5H5.75047ZM7.25047 9.75C7.25047 9.33579 6.91469 9 6.50047 9C6.08626 9 5.75047 9.33579 5.75047 9.75H7.25047ZM2.78847 4.61C2.78847 5.02421 3.12426 5.36 3.53847 5.36C3.95269 5.36 4.28847 5.02421 4.28847 4.61H2.78847ZM3.53847 4.15H4.28847C4.28847 4.14252 4.28836 4.13504 4.28814 4.12757L3.53847 4.15ZM6.50047 1L6.50912 0.25005C6.49834 0.249926 6.48756 0.250034 6.47679 0.250374L6.50047 1ZM8.37995 2.88595C8.57819 3.24964 9.03372 3.38377 9.39742 3.18553C9.76111 2.98729 9.89524 2.53175 9.697 2.16805L8.37995 2.88595ZM3.53847 4.61L3.34599 3.88503L3.33519 3.88808L3.53847 4.61ZM4.38447 4.5L4.38378 5.25H4.38447V4.5ZM8.61547 4.5V5.25L8.61616 5.25L8.61547 4.5ZM9.46147 4.61L9.66457 3.88794L9.65393 3.88511L9.46147 4.61ZM12.0005 8L11.2505 7.9918V8H12.0005ZM12.0005 11.5H11.2504L11.2506 11.5123L12.0005 11.5ZM8.61547 15V15.7501L8.62822 15.7499L8.61547 15ZM4.38547 15L4.37272 15.75H4.38547V15ZM1.00047 11.5L1.75047 11.5123V11.5H1.00047ZM1.00047 8H1.75052L1.75043 7.99174L1.00047 8ZM7.25047 11.5V9.75H5.75047V11.5H7.25047ZM4.28847 4.61V4.15H2.78847V4.61H4.28847ZM4.28814 4.12757C4.25002 2.85386 5.25052 1.78987 6.52416 1.74963L6.47679 0.250374C4.37612 0.316744 2.72595 2.07165 2.78881 4.17243L4.28814 4.12757ZM6.49183 1.74995C7.2804 1.75904 8.00251 2.19351 8.37995 2.88595L9.697 2.16805C9.05975 0.998946 7.84053 0.2654 6.50912 0.25005L6.49183 1.74995ZM3.73093 5.33489C3.94393 5.27833 4.1634 5.2498 4.38378 5.25L4.38516 3.75C4.03438 3.74968 3.68505 3.7951 3.34601 3.88511L3.73093 5.33489ZM4.38447 5.25H8.61547V3.75H4.38447V5.25ZM8.61616 5.25C8.83654 5.2498 9.05601 5.27833 9.26901 5.33489L9.65393 3.88511C9.3149 3.7951 8.96557 3.74968 8.61478 3.75L8.61616 5.25ZM9.2584 5.33198C10.4473 5.66639 11.264 6.75683 11.2505 7.9918L12.7504 8.0082C12.7713 6.09517 11.5062 4.40602 9.66454 3.88802L9.2584 5.33198ZM11.2505 8V11.5H12.7505V8H11.2505ZM11.2506 11.5123C11.275 12.9993 10.0897 14.2248 8.60273 14.2501L8.62822 15.7499C10.9432 15.7105 12.7884 13.8027 12.7504 11.4877L11.2506 11.5123ZM8.61547 14.25H4.38547V15.75H8.61547V14.25ZM4.39822 14.2501C2.9112 14.2248 1.72597 12.9993 1.75037 11.5123L0.250574 11.4877C0.212592 13.8027 2.05775 15.7105 4.37273 15.7499L4.39822 14.2501ZM1.75047 11.5V8H0.250473V11.5H1.75047ZM1.75043 7.99174C1.73683 6.75699 2.55316 5.66662 3.74176 5.33192L3.33519 3.88808C1.49399 4.40654 0.229454 6.09557 0.250519 8.00826L1.75043 7.99174Z" fill="#838383"/>
</svg>
