<svg width="49" height="49" viewBox="0 0 49 49" fill="none" xmlns="http://www.w3.org/2000/svg">
<rect x="0.57019" width="48.1365" height="48.1365" rx="15" fill="#FFC535"/>
<path d="M18.5702 13.5C17.3767 13.5 16.2321 13.9741 15.3882 14.818C14.5443 15.6619 14.0702 16.8065 14.0702 18V30C14.0702 31.1935 14.5443 32.3381 15.3882 33.182C16.2321 34.0259 17.3767 34.5 18.5702 34.5H23.9702C23.7249 34.0206 23.5274 33.5182 23.3807 33H18.5702C17.7745 33 17.0115 32.6839 16.4489 32.1213C15.8863 31.5587 15.5702 30.7956 15.5702 30V18C15.5702 17.2044 15.8863 16.4413 16.4489 15.8787C17.0115 15.3161 17.7745 15 18.5702 15H30.5702C31.3658 15 32.1289 15.3161 32.6915 15.8787C33.2541 16.4413 33.5702 17.2044 33.5702 18V22.8105C34.0937 22.959 34.5947 23.1555 35.0702 23.4V18C35.0702 16.8065 34.5961 15.6619 33.7522 14.818C32.9083 13.9741 31.7637 13.5 30.5702 13.5H18.5702ZM23.6012 19.656C23.742 19.5152 23.8211 19.3242 23.8211 19.125C23.8211 18.9258 23.742 18.7348 23.6012 18.594C23.4604 18.4532 23.2694 18.3741 23.0702 18.3741C22.871 18.3741 22.68 18.4532 22.5392 18.594L20.4212 20.712L19.8257 20.169C19.6777 20.0425 19.4864 19.9785 19.2921 19.9905C19.0978 20.0026 18.9159 20.0896 18.7846 20.2333C18.6533 20.3771 18.5831 20.5662 18.5887 20.7608C18.5943 20.9553 18.6754 21.1401 18.8147 21.276L19.9397 22.3035C20.0822 22.4333 20.2693 22.5032 20.462 22.4987C20.6547 22.4943 20.8383 22.4157 20.9747 22.2795L23.5997 19.6545L23.6012 19.656ZM23.6012 26.094C23.671 26.1637 23.7264 26.2464 23.7643 26.3376C23.8021 26.4287 23.8215 26.5263 23.8215 26.625C23.8215 26.7237 23.8021 26.8213 23.7643 26.9124C23.7264 27.0036 23.671 27.0863 23.6012 27.156L20.9762 29.781C20.8396 29.9175 20.6555 29.996 20.4625 30.0002C20.2694 30.0044 20.0821 29.9339 19.9397 29.8035L18.8147 28.776C18.6754 28.6401 18.5943 28.4553 18.5887 28.2608C18.5831 28.0662 18.6533 27.8771 18.7846 27.7333C18.9159 27.5896 19.0978 27.5026 19.2921 27.4905C19.4864 27.4785 19.6777 27.5425 19.8257 27.669L20.4212 28.2135L22.5392 26.094C22.6089 26.0242 22.6916 25.9687 22.7827 25.9309C22.8739 25.8931 22.9715 25.8737 23.0702 25.8737C23.1688 25.8737 23.2665 25.8931 23.3576 25.9309C23.4488 25.9687 23.5315 26.0242 23.6012 26.094ZM25.3202 20.25C25.3202 20.0511 25.3992 19.8603 25.5399 19.7197C25.6805 19.579 25.8713 19.5 26.0702 19.5H29.8202C30.0191 19.5 30.2099 19.579 30.3505 19.7197C30.4912 19.8603 30.5702 20.0511 30.5702 20.25C30.5702 20.4489 30.4912 20.6397 30.3505 20.7803C30.2099 20.921 30.0191 21 29.8202 21H26.0702C25.8713 21 25.6805 20.921 25.5399 20.7803C25.3992 20.6397 25.3202 20.4489 25.3202 20.25ZM38.0702 30.75C38.0702 32.5402 37.359 34.2571 36.0932 35.523C34.8273 36.7888 33.1104 37.5 31.3202 37.5C29.53 37.5 27.8131 36.7888 26.5472 35.523C25.2814 34.2571 24.5702 32.5402 24.5702 30.75C24.5702 28.9598 25.2814 27.2429 26.5472 25.977C27.8131 24.7112 29.53 24 31.3202 24C33.1104 24 34.8273 24.7112 36.0932 25.977C37.359 27.2429 38.0702 28.9598 38.0702 30.75ZM32.0702 27.75C32.0702 27.5511 31.9912 27.3603 31.8505 27.2197C31.7099 27.079 31.5191 27 31.3202 27C31.1213 27 30.9305 27.079 30.7899 27.2197C30.6492 27.3603 30.5702 27.5511 30.5702 27.75V30H28.3202C28.1213 30 27.9305 30.079 27.7899 30.2197C27.6492 30.3603 27.5702 30.5511 27.5702 30.75C27.5702 30.9489 27.6492 31.1397 27.7899 31.2803C27.9305 31.421 28.1213 31.5 28.3202 31.5H30.5702V33.75C30.5702 33.9489 30.6492 34.1397 30.7899 34.2803C30.9305 34.421 31.1213 34.5 31.3202 34.5C31.5191 34.5 31.7099 34.421 31.8505 34.2803C31.9912 34.1397 32.0702 33.9489 32.0702 33.75V31.5H34.3202C34.5191 31.5 34.7099 31.421 34.8505 31.2803C34.9912 31.1397 35.0702 30.9489 35.0702 30.75C35.0702 30.5511 34.9912 30.3603 34.8505 30.2197C34.7099 30.079 34.5191 30 34.3202 30H32.0702V27.75Z" fill="#5B5B5B"/>
</svg>
