<svg width="31" height="31" viewBox="0 0 31 31" fill="none" xmlns="http://www.w3.org/2000/svg">
<path d="M9.51447 4.9834C8.32099 4.9834 7.1764 5.4575 6.33248 6.30142C5.48857 7.14533 5.01447 8.28992 5.01447 9.4834V21.4834C5.01447 22.6769 5.48857 23.8215 6.33248 24.6654C7.1764 25.5093 8.32099 25.9834 9.51447 25.9834H14.9145C14.6692 25.504 14.4717 25.0015 14.325 24.4834H9.51447C8.71882 24.4834 7.95575 24.1673 7.39314 23.6047C6.83054 23.0421 6.51447 22.279 6.51447 21.4834V9.4834C6.51447 8.68775 6.83054 7.92469 7.39314 7.36208C7.95575 6.79947 8.71882 6.4834 9.51447 6.4834H21.5145C22.3101 6.4834 23.0732 6.79947 23.6358 7.36208C24.1984 7.92469 24.5145 8.68775 24.5145 9.4834V14.2939C25.038 14.4424 25.539 14.6389 26.0145 14.8834V9.4834C26.0145 8.28992 25.5404 7.14533 24.6964 6.30142C23.8525 5.4575 22.7079 4.9834 21.5145 4.9834H9.51447ZM14.5455 11.1394C14.6863 10.9986 14.7654 10.8076 14.7654 10.6084C14.7654 10.4092 14.6863 10.2182 14.5455 10.0774C14.4046 9.93657 14.2136 9.85745 14.0145 9.85745C13.8153 9.85745 13.6243 9.93657 13.4835 10.0774L11.3655 12.1954L10.77 11.6524C10.622 11.5259 10.4307 11.4619 10.2364 11.4739C10.0421 11.486 9.86013 11.573 9.72887 11.7167C9.5976 11.8605 9.52736 12.0496 9.53298 12.2442C9.53859 12.4387 9.61963 12.6235 9.75897 12.7594L10.884 13.7869C11.0265 13.9167 11.2135 13.9866 11.4063 13.9821C11.599 13.9776 11.7826 13.8991 11.919 13.7629L14.544 11.1379L14.5455 11.1394ZM14.5455 17.5774C14.6153 17.6471 14.6707 17.7298 14.7085 17.8209C14.7463 17.9121 14.7658 18.0097 14.7658 18.1084C14.7658 18.207 14.7463 18.3047 14.7085 18.3958C14.6707 18.487 14.6153 18.5697 14.5455 18.6394L11.9205 21.2644C11.7838 21.4009 11.5998 21.4794 11.4067 21.4836C11.2137 21.4878 11.0264 21.4173 10.884 21.2869L9.75897 20.2594C9.61963 20.1235 9.53859 19.9387 9.53298 19.7442C9.52736 19.5496 9.5976 19.3605 9.72887 19.2167C9.86013 19.073 10.0421 18.986 10.2364 18.9739C10.4307 18.9619 10.622 19.0259 10.77 19.1524L11.3655 19.6969L13.4835 17.5774C13.5531 17.5076 13.6359 17.4521 13.727 17.4143C13.8181 17.3765 13.9158 17.3571 14.0145 17.3571C14.1131 17.3571 14.2108 17.3765 14.3019 17.4143C14.393 17.4521 14.4758 17.5076 14.5455 17.5774ZM16.2645 11.7334C16.2645 11.5345 16.3435 11.3437 16.4841 11.2031C16.6248 11.0624 16.8156 10.9834 17.0145 10.9834H20.7645C20.9634 10.9834 21.1541 11.0624 21.2948 11.2031C21.4354 11.3437 21.5145 11.5345 21.5145 11.7334C21.5145 11.9323 21.4354 12.1231 21.2948 12.2637C21.1541 12.4044 20.9634 12.4834 20.7645 12.4834H17.0145C16.8156 12.4834 16.6248 12.4044 16.4841 12.2637C16.3435 12.1231 16.2645 11.9323 16.2645 11.7334ZM29.0145 22.2334C29.0145 24.0236 28.3033 25.7405 27.0374 27.0064C25.7716 28.2722 24.0547 28.9834 22.2645 28.9834C20.4743 28.9834 18.7574 28.2722 17.4915 27.0064C16.2256 25.7405 15.5145 24.0236 15.5145 22.2334C15.5145 20.4432 16.2256 18.7263 17.4915 17.4604C18.7574 16.1946 20.4743 15.4834 22.2645 15.4834C24.0547 15.4834 25.7716 16.1946 27.0374 17.4604C28.3033 18.7263 29.0145 20.4432 29.0145 22.2334ZM23.0145 19.2334C23.0145 19.0345 22.9354 18.8437 22.7948 18.7031C22.6541 18.5624 22.4634 18.4834 22.2645 18.4834C22.0656 18.4834 21.8748 18.5624 21.7341 18.7031C21.5935 18.8437 21.5145 19.0345 21.5145 19.2334V21.4834H19.2645C19.0656 21.4834 18.8748 21.5624 18.7341 21.7031C18.5935 21.8437 18.5145 22.0345 18.5145 22.2334C18.5145 22.4323 18.5935 22.6231 18.7341 22.7637C18.8748 22.9044 19.0656 22.9834 19.2645 22.9834H21.5145V25.2334C21.5145 25.4323 21.5935 25.6231 21.7341 25.7637C21.8748 25.9044 22.0656 25.9834 22.2645 25.9834C22.4634 25.9834 22.6541 25.9044 22.7948 25.7637C22.9354 25.6231 23.0145 25.4323 23.0145 25.2334V22.9834H25.2645C25.4634 22.9834 25.6541 22.9044 25.7948 22.7637C25.9354 22.6231 26.0145 22.4323 26.0145 22.2334C26.0145 22.0345 25.9354 21.8437 25.7948 21.7031C25.6541 21.5624 25.4634 21.4834 25.2645 21.4834H23.0145V19.2334Z" fill="#5B5B5B"/>
</svg>
