<svg width="49" height="49" viewBox="0 0 49 49" fill="none" xmlns="http://www.w3.org/2000/svg">
<path d="M33.7866 36.5683H31.7033V31.3152C31.7025 30.4985 31.3777 29.7155 30.8002 29.138C30.2227 28.5606 29.4397 28.2358 28.6231 28.2349H20.2002C19.3835 28.2358 18.6005 28.5606 18.023 29.138C17.4456 29.7155 17.1208 30.4985 17.12 31.3152V36.5683H15.0366V31.3152C15.0383 29.9462 15.5828 28.6338 16.5508 27.6658C17.5188 26.6978 18.8312 26.1533 20.2002 26.1516H28.6231C29.992 26.1533 31.3044 26.6978 32.2724 27.6658C33.2404 28.6338 33.785 29.9462 33.7866 31.3152V36.5683Z" fill="#5B5B5B"/>
<path d="M24.4116 24.0683C23.1755 24.0683 21.9671 23.7017 20.9393 23.015C19.9115 22.3282 19.1104 21.3521 18.6374 20.21C18.1643 19.068 18.0406 17.8113 18.2817 16.599C18.5229 15.3866 19.1181 14.2729 19.9922 13.3989C20.8663 12.5248 21.9799 11.9295 23.1923 11.6884C24.4047 11.4472 25.6614 11.571 26.8034 12.044C27.9454 12.5171 28.9215 13.3181 29.6083 14.346C30.2951 15.3738 30.6616 16.5821 30.6616 17.8183C30.66 19.4754 30.001 21.0641 28.8292 22.2359C27.6575 23.4076 26.0687 24.0666 24.4116 24.0683ZM24.4116 13.6516C23.5875 13.6516 22.782 13.896 22.0967 14.3538C21.4115 14.8117 20.8775 15.4624 20.5621 16.2238C20.2468 16.9851 20.1642 17.8229 20.325 18.6311C20.4858 19.4394 20.8826 20.1818 21.4653 20.7645C22.0481 21.3473 22.7905 21.7441 23.5987 21.9049C24.407 22.0656 25.2448 21.9831 26.0061 21.6678C26.7675 21.3524 27.4182 20.8183 27.8761 20.1331C28.3339 19.4479 28.5783 18.6424 28.5783 17.8183C28.5783 16.7132 28.1393 15.6534 27.3579 14.872C26.5765 14.0906 25.5167 13.6516 24.4116 13.6516Z" fill="#5B5B5B"/>
</svg>
