<svg width="25" height="25" viewBox="0 0 25 25" fill="none" xmlns="http://www.w3.org/2000/svg">
<circle cx="12.5" cy="12.5" r="12.5" fill="#FFC535"/>
<g clip-path="url(#clip0_2704_767)">
<path d="M12.5 21.25C7.66738 21.25 3.75 17.3326 3.75 12.5C3.75 7.66738 7.66738 3.75 12.5 3.75C13.8586 3.74898 15.1987 4.0648 16.4138 4.67238C17.629 5.27995 18.6857 6.16253 19.5 7.25H17.1288C16.1183 6.35904 14.8723 5.77857 13.5401 5.57823C12.208 5.37789 10.8463 5.5662 9.61853 6.12056C8.39075 6.67493 7.349 7.57179 6.61831 8.70354C5.88762 9.83529 5.49901 11.1538 5.49912 12.501C5.49924 13.8481 5.88806 15.1666 6.61894 16.2982C7.34983 17.4298 8.39172 18.3265 9.61959 18.8807C10.8475 19.4349 12.2092 19.6229 13.5413 19.4224C14.8734 19.2218 16.1194 18.6411 17.1296 17.75H19.5009C18.6865 18.8376 17.6296 19.7202 16.4143 20.3278C15.199 20.9354 13.8587 21.2512 12.5 21.25V21.25ZM18.625 16V13.375H11.625V11.625H18.625V9L23 12.5L18.625 16Z" fill="white"/>
</g>
<defs>
<clipPath id="clip0_2704_767">
<rect width="21" height="21" fill="white" transform="translate(2 2)"/>
</clipPath>
</defs>
</svg>
