<svg width="21" height="27" viewBox="0 0 21 27" fill="none" xmlns="http://www.w3.org/2000/svg">
<path d="M20.8376 26.6668H18.6154V21.0634C18.6145 20.1923 18.2681 19.3571 17.6521 18.7412C17.0361 18.1252 16.201 17.7788 15.3298 17.7779H6.34539C5.47428 17.7788 4.6391 18.1252 4.02313 18.7412C3.40716 19.3571 3.06072 20.1923 3.05984 21.0634V26.6668H0.837616V21.0634C0.83938 19.6032 1.42023 18.2033 2.45276 17.1708C3.48528 16.1383 4.88518 15.5574 6.34539 15.5557H15.3298C16.7901 15.5574 18.19 16.1383 19.2225 17.1708C20.255 18.2033 20.8359 19.6032 20.8376 21.0634V26.6668Z" fill="black"/>
<path d="M10.8376 13.3333C9.51909 13.3333 8.23016 12.9423 7.13383 12.2098C6.0375 11.4773 5.18302 10.4361 4.67843 9.21789C4.17385 7.99972 4.04183 6.65928 4.29906 5.36607C4.5563 4.07286 5.19123 2.88497 6.12358 1.95262C7.05593 1.02027 8.24382 0.385336 9.53703 0.128101C10.8302 -0.129134 12.1707 0.00288857 13.3889 0.507473C14.607 1.01206 15.6482 1.86654 16.3808 2.96287C17.1133 4.0592 17.5043 5.34813 17.5043 6.66667C17.5025 8.43424 16.7996 10.1289 15.5497 11.3788C14.2999 12.6286 12.6052 13.3316 10.8376 13.3333ZM10.8376 2.22223C9.9586 2.22223 9.09931 2.48289 8.36843 2.97125C7.63754 3.45961 7.06789 4.15374 6.7315 4.96586C6.39511 5.77797 6.30709 6.6716 6.47858 7.53374C6.65007 8.39588 7.07337 9.1878 7.69493 9.80937C8.3165 10.4309 9.10842 10.8542 9.97056 11.0257C10.8327 11.1972 11.7263 11.1092 12.5384 10.7728C13.3506 10.4364 14.0447 9.86676 14.533 9.13587C15.0214 8.40499 15.2821 7.5457 15.2821 6.66667C15.2821 5.48793 14.8138 4.35747 13.9803 3.52397C13.1468 2.69048 12.0164 2.22223 10.8376 2.22223Z" fill="black"/>
</svg>
