<svg width="21" height="21" viewBox="0 0 21 21" fill="none" xmlns="http://www.w3.org/2000/svg">
<path d="M6.8008 20.4496C5.29164 20.4486 3.83376 19.9018 2.69617 18.9101C1.55859 17.9185 0.818061 16.5488 0.611249 15.0539C0.404437 13.5589 0.745294 12.0397 1.57092 10.7764C2.39655 9.5131 3.65123 8.59106 5.10344 8.18041C6.15898 7.87814 7.27624 7.86432 8.33893 8.14039L14.9316 1.54937C15.2816 1.19697 15.6981 0.917561 16.1569 0.727369C16.6157 0.537176 17.1077 0.439981 17.6044 0.441422C18.386 0.442084 19.1354 0.752875 19.6881 1.30556C20.2408 1.85825 20.5516 2.60767 20.5522 3.38929C20.5535 3.88598 20.4563 4.37801 20.2663 4.83691C20.0763 5.29582 19.7972 5.7125 19.4451 6.06288L18.8849 6.62311C18.5714 6.93443 18.1479 7.10966 17.7061 7.1108H16.3839V7.94448C16.3839 8.38668 16.2082 8.81078 15.8955 9.12347C15.5828 9.43616 15.1587 9.61182 14.7165 9.61182H13.8829V10.934C13.8834 11.1531 13.8406 11.37 13.7567 11.5724C13.6729 11.7747 13.5497 11.9584 13.3943 12.1128L12.8524 12.6547C13.13 13.7169 13.1165 14.8342 12.8132 15.8894C12.472 17.0915 11.7798 18.1645 10.8251 18.9708C9.87036 19.7771 8.6967 20.2801 7.4544 20.4154C7.23726 20.438 7.01911 20.4494 6.8008 20.4496ZM6.8008 9.61182C5.94724 9.611 5.1104 9.84844 4.38447 10.2974C3.65854 10.7464 3.07235 11.3891 2.69188 12.1532C2.31141 12.9172 2.15176 13.7723 2.23092 14.6222C2.31007 15.4721 2.62488 16.283 3.13991 16.9637C3.65494 17.6444 4.34973 18.1677 5.14609 18.475C5.94245 18.7822 6.80875 18.861 7.64747 18.7025C8.48619 18.5441 9.26404 18.1547 9.89345 17.5782C10.5229 17.0016 10.9789 16.2608 11.2101 15.4392C11.4702 14.5359 11.441 13.5739 11.1267 12.6881C11.0754 12.5401 11.0668 12.3807 11.1019 12.2281C11.137 12.0755 11.2144 11.9359 11.3251 11.8252L12.2155 10.934V9.61182C12.2155 9.16962 12.3912 8.74552 12.7039 8.43283C13.0165 8.12014 13.4406 7.94448 13.8829 7.94448H14.7165V7.1108C14.7165 6.6686 14.8922 6.2445 15.2049 5.93181C15.5176 5.61913 15.9417 5.44346 16.3839 5.44346H17.7061L18.2663 4.88323C18.463 4.68745 18.619 4.45461 18.7251 4.19818C18.8313 3.94176 18.8856 3.66683 18.8849 3.38929C18.8847 3.04989 18.7498 2.72443 18.5099 2.48436C18.27 2.24429 17.9446 2.10921 17.6052 2.10877C17.3275 2.10809 17.0524 2.16248 16.7958 2.2688C16.5392 2.37512 16.3063 2.53126 16.1104 2.72819L9.1651 9.67268C9.05426 9.78346 8.91444 9.86076 8.76167 9.8957C8.60891 9.93065 8.44939 9.92183 8.30141 9.87026C7.81794 9.70004 7.3092 9.61266 6.79663 9.61182H6.8008ZM4.71245 15.4475C4.71245 15.6124 4.76134 15.7736 4.85295 15.9107C4.94455 16.0478 5.07476 16.1546 5.22709 16.2177C5.37942 16.2808 5.54705 16.2974 5.70876 16.2652C5.87048 16.233 6.01903 16.1536 6.13562 16.037C6.25221 15.9204 6.33161 15.7719 6.36378 15.6102C6.39594 15.4485 6.37944 15.2808 6.31634 15.1285C6.25324 14.9762 6.14638 14.846 6.00929 14.7544C5.87219 14.6628 5.71101 14.6139 5.54612 14.6139C5.32502 14.6139 5.11297 14.7017 4.95663 14.858C4.80028 15.0144 4.71245 15.2264 4.71245 15.4475Z" fill="black"/>
</svg>
